<svg width="15" height="14" viewBox="0 0 15 14" fill="none" xmlns="http://www.w3.org/2000/svg">
<path d="M10.917 0.200073L3.88109 0.200073C1.93729 0.200073 0.355957 1.78187 0.355957 3.72625L0.355957 10.165C0.355957 12.1094 1.93729 13.6912 3.88109 13.6912H10.917C12.8608 13.6912 14.4422 12.1094 14.4422 10.165V3.72625C14.4422 1.78187 12.8608 0.200073 10.917 0.200073ZM1.59952 3.72625C1.59952 2.46798 2.6232 1.444 3.88109 1.444L10.917 1.444C12.1749 1.444 13.1986 2.46798 13.1986 3.72625V10.165C13.1986 11.4233 12.1749 12.4473 10.917 12.4473H3.88109C2.6232 12.4473 1.59952 11.4233 1.59952 10.165L1.59952 3.72625Z" fill="#6B6B6B"/>
<path d="M7.3991 10.2248C9.20668 10.2248 10.6781 8.75376 10.6781 6.94486C10.6781 5.13595 9.20747 3.66492 7.3991 3.66492C5.59072 3.66492 4.12012 5.13595 4.12012 6.94486C4.12012 8.75376 5.59072 10.2248 7.3991 10.2248ZM7.3991 4.90964C8.52156 4.90964 9.43451 5.82286 9.43451 6.94565C9.43451 8.06845 8.52156 8.98167 7.3991 8.98167C6.27663 8.98167 5.36368 8.06845 5.36368 6.94565C5.36368 5.82286 6.27663 4.90964 7.3991 4.90964Z" fill="#6B6B6B"/>
<path d="M10.9816 4.19472C11.4684 4.19472 11.8651 3.79867 11.8651 3.31098C11.8651 2.8233 11.4692 2.42725 10.9816 2.42725C10.4941 2.42725 10.0981 2.8233 10.0981 3.31098C10.0981 3.79867 10.4941 4.19472 10.9816 4.19472Z" fill="#6B6B6B"/>
</svg>
