<svg width="58" height="38" viewBox="0 0 58 38" fill="none" xmlns="http://www.w3.org/2000/svg">
<g clip-path="url(#clip0_34_486)">
<path d="M47.321 0.200073H47.3025V0.218413L47.321 0.200073Z" fill="#7DBB42"/>
<path d="M47.3964 0.275479C47.3776 0.256631 47.3399 0.237782 47.3211 0.218933C47.3023 0.275479 47.3023 0.332025 47.3964 0.275479Z" fill="#7DBB42"/>
<path d="M47.321 0.200073L47.3025 0.218413H47.321V0.200073Z" fill="#7DBB42"/>
<path d="M57.1286 2.95197C56.8838 3.00851 56.6203 3.04621 56.3756 3.10276C54.5684 3.49858 52.7613 3.91325 50.973 4.34677C47.9423 5.08187 44.9304 5.89236 41.9562 6.8348C39.9043 7.47565 37.8713 8.17306 35.8759 9.0024C34.6712 9.51131 33.4664 10.0579 32.3181 10.6988C31.6781 11.0569 31.0569 11.4527 30.4733 11.8863C30.2286 12.0747 29.9839 12.2444 29.7392 12.414C27.8944 13.7146 26.3885 15.2979 25.2967 17.277C24.4872 18.7283 24.0354 20.2928 23.9413 21.9515C23.8848 23.0258 23.9978 24.1002 24.2425 25.1557C24.6378 26.871 25.3531 28.4543 26.2567 29.9622C26.2943 30.0187 26.332 30.0564 26.3696 30.1129C26.4073 30.1506 26.4449 30.1695 26.4826 30.1318C26.5767 30.0376 26.6708 29.9433 26.7461 29.8491C27.5556 28.8689 28.3838 27.9076 29.2309 26.9652C31.264 24.7034 33.4099 22.5546 35.6877 20.5567C36.8359 19.5577 38.0219 18.5775 39.2643 17.6917C40.149 17.0508 41.0714 16.4476 42.0315 15.9199C42.1444 15.8633 42.2573 15.8068 42.3891 15.7691C42.4079 15.7691 42.4268 15.7879 42.4456 15.8068C42.4644 15.8256 42.4644 15.8445 42.4644 15.8445C42.3515 15.9953 42.2385 16.1649 42.1068 16.2968C39.7349 19.0865 37.4195 21.9138 35.1418 24.7788C33.2593 27.1349 31.3957 29.5286 29.5886 31.9601L30.9816 33.7319C31.0192 33.7319 31.0569 33.7319 31.0757 33.7507C31.151 33.8261 31.2451 33.9015 31.3204 33.9769C31.8099 34.467 32.3181 34.9194 32.8828 35.334C33.7299 35.9372 34.6147 36.4461 35.6124 36.7854C36.2712 37.0116 36.9301 37.1624 37.6266 37.2189C38.8878 37.3131 40.1114 37.087 41.2785 36.5592C42.4268 36.0503 43.4433 35.3152 44.3657 34.467C45.1751 33.6942 45.9093 32.846 46.5869 31.9413C47.547 30.6407 48.3752 29.2459 49.1282 27.8134C50.7471 24.7034 52.1401 21.4802 53.4013 18.2006C54.7002 14.789 55.792 11.3208 56.5638 7.77723C56.8838 6.28819 57.1474 4.78029 57.3168 3.25355C57.3168 3.2347 57.3168 3.21585 57.3356 3.197C57.3168 3.00851 57.2415 2.93312 57.1286 2.95197Z" fill="#7DBB42"/>
<path d="M20.5154 34.0335C19.6306 33.091 18.7083 32.1863 17.6917 31.3758C17.0329 30.848 16.374 30.3391 15.7152 29.8114C15.5458 29.6794 15.3952 29.5286 15.2258 29.3967C15.2069 29.3778 15.2069 29.359 15.2069 29.3401C15.2258 29.3213 15.2446 29.3024 15.2634 29.3213C15.3575 29.3401 15.4705 29.359 15.5646 29.3967C16.6941 29.8302 17.767 30.3768 18.8024 30.98C19.8565 31.602 20.8731 32.2805 21.8707 33.0156C22.0025 33.1099 22.1531 33.2041 22.3037 33.2984C22.3602 33.3361 22.4543 33.2795 22.4543 33.223C22.5108 32.846 22.5672 32.4502 22.5861 32.0732C22.6425 31.0931 22.5484 30.1318 22.3602 29.1894C22.0778 27.9076 21.5696 26.739 20.8166 25.6646C20.0071 24.496 18.9718 23.5724 17.7859 22.8185C16.6188 22.0834 15.3764 21.5745 14.0775 21.1598C12.2139 20.5943 10.3126 20.2928 8.37372 20.142C7.26308 20.0666 6.13362 19.9912 5.02299 20.0289C4.42061 20.0477 3.81823 20.0854 3.21586 20.0854C2.31229 20.1043 1.40872 20.1797 0.505156 20.2551C0.467507 20.2551 0.429858 20.2739 0.373385 20.2739C0.316913 20.2739 0.279264 20.3682 0.316913 20.4247C0.373385 20.5378 0.411034 20.6697 0.467507 20.7828C1.16401 22.2153 1.91698 23.6101 2.72642 24.9861C3.62999 26.5128 4.59003 27.983 5.62537 29.4155C6.71718 30.8857 7.88428 32.2805 9.22081 33.5434C9.97378 34.2597 10.7832 34.9005 11.6491 35.4471C12.5527 36.0126 13.4939 36.465 14.5293 36.71C15.3387 36.8985 16.1293 36.955 16.9576 36.8042C17.8047 36.6723 18.5765 36.3707 19.3106 35.9372C19.4236 35.8618 19.5365 35.8053 19.6495 35.7299L21.0613 34.6178C20.8919 34.4481 20.7036 34.2408 20.5154 34.0335Z" fill="#7DBB42"/>
</g>
<defs>
<clipPath id="clip0_34_486">
<rect width="57" height="37" fill="white" transform="translate(0.316895 0.200073)"/>
</clipPath>
</defs>
</svg>
