<svg width="725" height="434" viewBox="0 0 725 434" fill="none" xmlns="http://www.w3.org/2000/svg">
<path d="M372.101 49.815C372.273 52.8432 368.234 52.4701 367.731 55.0678C367.501 56.2447 368.205 57.809 368.033 58.8711C367.716 60.7655 366.193 60.2202 364.266 61.2248C363.275 61.7415 362.326 63.6216 361.248 63.7508C360.256 63.8799 359.652 63.0619 358.991 63.2054C357.999 63.435 358.33 64.8846 356.878 65.186C355.714 65.4299 353.687 63.9373 353.557 65.7313C353.471 66.8795 355.383 67.4966 356.576 67.3531C357.525 67.2383 358.215 66.4633 359.135 66.4489C360.917 66.4346 362.081 68.042 363.203 68.0851C365.79 68.1712 368.334 65.2147 371.051 65.5448C372.273 65.7026 373.006 66.736 373.912 66.6355C375.364 66.4633 376.6 64.454 377.678 63.7364C377.218 60.6938 377.721 56.6752 380.093 56.503C381.717 56.3882 384.161 59.847 384.463 56.503C384.592 55.0534 383.169 53.7618 382.206 53.7905C381.343 53.8192 380.193 55.8572 379.489 54.1493C379.489 52.4844 381.041 52.9294 381.904 52.5131C382.536 52.2118 382.996 51.365 383.715 51.0636C387.309 49.5566 392.282 52.5418 393.662 48.8964C390.486 45.6385 385.066 50.0877 381.444 49.8006C379.906 49.6858 377.865 48.308 377.376 46.5427C377.218 45.983 377.347 45.2367 377.218 44.189C377.074 43.0408 376.585 41.8209 376.614 41.1033C376.772 37.831 383.543 37.2139 383.543 33.1379C382.249 31.6453 378.454 31.9037 377.203 33.4967C376.758 34.0708 376.787 35.2333 376.154 36.3958C374.803 38.8644 370.433 39.1658 369.067 42.1797C368.766 42.8542 368.234 44.6913 368.464 45.7964C368.823 47.5473 371.986 48.021 372.101 49.815ZM336.193 226.761C331.852 226 327.396 228.096 324.42 229.646C322.71 230.55 320.956 231.913 319.446 231.999C318.009 232.085 316.6 231.081 315.22 230.923C313.424 230.693 311.124 230.909 309.341 231.282C307.602 231.655 306.049 233.133 304.511 233.262C301.593 233.521 298.805 230.105 296.965 228.383C295.843 227.335 294.694 226.474 293.644 225.484C292.523 224.421 291.057 223.79 290.18 222.771C288.987 221.393 288.987 218.996 288.369 217.159C287.636 215.007 285.393 213.413 283.697 211.375C282.418 209.84 279.485 207.558 279.169 205.592C279.011 204.587 279.528 203.424 279.471 202.334C279.399 200.755 278.393 199.851 278.422 198.717C278.45 197.124 280.017 195.904 280.376 194.555C280.563 193.866 280.477 192.904 280.678 192.029C281.095 190.192 282.116 189.101 281.886 186.417C281.8 185.341 281.023 184.365 280.98 182.987C280.951 182.04 281.498 181.509 281.426 180.633C281.311 179.083 279.643 178.782 279.471 177.017C279.298 175.18 280.937 173.673 281.886 171.592C282.317 170.659 282.547 169.224 282.935 168.52C283.783 166.985 285.163 166.238 285.796 164.717C286.27 163.598 286.414 161.933 286.845 161.1C287.406 160.024 288.512 159.436 289.562 158.029C290.424 156.867 290.769 155.474 291.373 154.958C292.135 154.298 293.256 154.14 294.09 153.695C296.878 152.173 298.92 150.207 300.271 146.992C299.854 144.079 300.486 142.859 301.478 140.85C302.398 138.984 303.074 137.219 304.641 136.142C306.524 134.865 308.292 134.75 309.614 132.339C310.276 131.133 311.267 129.067 311.282 127.818C311.296 126.024 309.744 123.728 308.421 123.469C307.056 123.211 304.957 124.718 304.195 122.924C303.951 122.35 304.281 121.015 304.195 120.384C304.023 119.193 303.174 118.36 303.146 117.485C303.074 115.791 304.54 114.011 304.957 112.06C305.518 109.39 304.971 107.352 304.799 104.281C306.912 100.291 311.598 102.272 316.27 102.645C316.974 102.702 317.779 102.444 318.527 102.472C321.301 102.544 323.471 103.549 324.406 100.664C324.751 99.5734 325.067 95.5405 324.866 94.5071C324.621 93.3015 322.638 90.1585 321.689 89.4408C320.194 88.2927 318.023 88.795 317.161 86.7283C317.851 83.1547 321.2 86.1255 323.198 85.2788C324.219 84.8482 324.104 82.7241 325.009 82.3797C325.628 82.15 326.418 83.126 327.266 83.1116C327.999 83.0973 330.644 81.5042 331.334 80.9301C332.297 80.1551 332.599 78.5333 333.447 77.8588C334.022 77.4139 334.784 77.4569 335.402 77.1412C336.682 76.481 338.306 75.1319 339.168 73.8833C340.419 72.0893 340.98 69.8647 342.489 69.549C344.516 69.1041 349.087 70.0226 349.432 67.3675C349.762 64.8415 347.578 62.8609 348.382 60.1341C349.015 57.9813 350.625 58.3544 352.91 57.0627C354.017 57.9956 353.687 60.6794 353.816 62.3156C355.21 62.3299 358.071 61.8132 358.344 60.3206C358.689 58.4549 356.303 56.5604 355.785 55.441C355.225 54.221 355.095 52.0826 353.974 51.8242C351.674 51.2932 349.446 55.6275 346.586 55.6275C344.703 55.6275 342.705 53.8909 342.216 52.1974C341.928 51.2358 342.187 50.3173 342.058 49.2983C341.871 47.82 341.138 46.2844 341.454 44.232C342.604 41.8496 345.263 41.4764 347.189 40.2422C347.908 39.7829 348.497 38.7926 349.302 38.4338C350.654 37.831 352.652 38.4338 353.974 37.5296C354.808 36.9556 354.578 35.9653 355.182 34.8171C355.555 34.0852 356.475 33.669 356.993 32.8365C357.352 32.2625 357.395 31.3726 357.755 30.8416C359.063 28.8897 361.449 28.1578 362.426 26.1342C362.858 25.2443 361.679 24.8999 361.981 23.5938C362.47 22.3309 364.353 23.2638 365.445 23.0485C366.94 22.7758 368.334 20.5799 369.973 20.1494C371.684 19.7045 373.509 19.9771 375.105 19.2452C376.054 18.8003 376.93 17.7669 377.822 17.6091C378.138 17.5517 379.029 17.81 379.475 17.7956C380.05 17.7669 380.668 17.3364 381.43 17.2503C382.536 17.1211 383.916 17.5804 385.354 17.6091C387.74 17.6665 389.997 16.7479 391.995 17.7956C393.03 18.341 392.915 19.7475 394.252 20.3216C394.927 20.6086 395.819 20.2068 396.81 20.3216C398.291 20.4938 399.829 21.7137 401.784 21.9577C402.488 22.0438 403.207 21.8573 403.897 21.9577C406.053 22.2735 408.425 23.6369 410.538 24.4837C412.306 25.2013 416.044 26.0911 416.115 28.1004C416.202 30.4828 412.852 31.1717 411.444 31.1717C409.072 31.1717 405.924 29.5069 403.451 30.4541C403.495 34.5444 407.174 37.6445 410.538 37.1421C410.84 35.219 408.626 36.2954 408.871 34.4296C410.38 33.0662 412.177 35.3481 414.304 34.975C415.138 34.7023 414.994 33.2671 415.21 32.2625C417.007 30.9564 419.249 29.0333 421.995 30.4541C422.124 30.1384 422.34 29.8944 422.598 29.7365C422.771 27.7559 420.787 26.7082 421.836 24.8425C422.368 23.5651 425.171 23.9957 425.603 25.029C425.818 26.249 424.898 26.1198 424.999 27.1962C425.531 28.6458 426.767 28.861 427.414 28.8323C428.894 28.7319 429.182 27.1531 430.576 26.292C431.137 25.9476 431.971 25.9189 432.689 25.5744C433.537 25.1726 434.27 24.3402 434.946 24.1249C435.449 23.967 436.211 24.1249 436.901 23.9383C437.792 23.7087 438.727 22.8475 439.46 22.8619C440.365 22.8619 441.027 24.1249 442.177 24.3114C442.809 24.4119 443.528 23.8809 444.433 23.7661C445.166 23.6656 445.943 23.8665 446.546 23.7661C447.984 23.5221 448.976 22.6036 450.169 22.6753C451.017 22.7327 452.454 24.0962 453.029 23.4073C454.007 22.2448 451.721 21.3836 452.426 20.3216C454.74 20.5369 457.198 20.4651 459.512 20.867C462.962 21.4554 466.196 23.5077 469.316 23.5795C469.028 21.0679 466.628 21.7855 465.55 20.6804C465.219 20.3359 463.868 17.6952 463.896 16.8771C463.911 16.4753 465.607 12.9877 466.01 12.5285C467.332 11.0358 471.702 11.0358 472.952 13.0738C473.801 14.466 473.527 16.5614 474.764 16.5183C475.827 16.4753 476.402 13.3322 477.624 13.2604C478.645 13.203 479.162 15.2697 480.183 15.2553C481.433 15.2266 482.296 12.428 483.949 12.3562C484.84 12.3132 485.142 12.9016 486.508 13.0738C487.456 12.3419 486.191 11.3803 486.666 10.3613C488.348 8.8974 492.2 10.0025 494.356 9.09832C494.96 8.2372 493.594 7.63442 494.212 6.7446C496.067 5.18023 499.2 5.05106 502.363 4.39087C504.303 3.98901 506.115 2.38159 507.638 2.20936C509.219 2.03714 510.729 3.32882 512.166 3.30011C513.029 3.28576 514.049 2.97002 514.883 2.58251C515.731 2.18066 516.306 1.20472 517.154 0.946385C518.477 0.558881 520.144 1.13296 521.682 0.946385C523.307 0.745457 524.73 -0.000846982 525.908 0.228785C527.001 0.444065 527.878 1.83621 528.927 2.03714C532.104 2.62557 535.381 1.46306 538.27 2.39594C538.788 2.56816 539.305 3.214 539.938 3.48669C541.878 4.33346 543.201 4.07512 543.56 6.91682C545.084 7.56266 545.975 9.24184 547.786 9.81592C548.994 10.1891 550.201 9.62935 551.553 9.62935C553.335 9.62935 555.621 9.71546 557.13 9.98815C557.992 10.146 558.711 10.9067 559.545 11.0789C560.149 11.1937 560.968 11.0071 561.658 11.0789C562.607 11.1794 563.455 11.653 564.217 11.6243C565.798 11.5669 566.991 9.87333 568.285 9.62935C568.974 9.50018 569.894 9.93074 570.541 9.98815C573.086 10.2465 576.004 9.58629 578.088 10.1747C579.195 10.4905 581.092 11.9544 582.314 13.0738C583.205 13.8919 583.737 15.1836 584.571 15.7864C585.362 16.3604 587.374 17.3938 588.193 17.2359C589.156 17.0493 589.199 15.7577 590.148 15.2553C593.138 14.4516 598.457 16.4035 600.857 15.0688C601.792 14.5521 601.605 13.3752 602.367 12.715C606.895 12.4567 611.408 12.9447 615.634 13.0738C617.129 13.1169 618.667 12.6146 620.019 12.9016C621.513 13.2174 622.606 15.0114 624.087 15.6141C625.078 16.016 626.818 15.8007 628.313 16.1595C629.319 16.3891 630.138 17.1211 630.871 17.2503C632.481 17.523 634.019 17.035 635.557 16.8915C639.022 16.5614 643.463 16.3317 646.87 17.9822C648.681 18.8577 649.443 20.623 651.384 20.8813C654.173 21.2545 658.485 20.6086 661.345 20.8813C662.021 20.9531 662.668 21.2832 663.157 21.2401C664.12 21.154 664.695 20.1781 665.873 20.1637C667.368 20.1207 669.74 22.9624 671.911 22.5175C672.845 21.7568 671.163 20.7091 672.054 19.9771C672.903 19.1304 674.067 19.9628 675.375 19.9771C676.094 19.9915 676.971 19.5466 677.632 19.6183C679.285 19.7906 680.866 21.5846 682.907 22.1443C684.532 22.6036 686.774 22.7758 688.786 22.5031C690.238 22.3165 691.474 21.7281 692.854 21.9577C693.516 22.0725 694.119 22.6466 694.809 22.8619C695.456 23.0628 696.089 22.8763 696.621 23.0341C697.124 23.192 697.627 23.7661 698.13 23.9383C700.933 24.8999 704.67 25.3735 707.632 26.4786C709.371 27.1244 711.153 28.4161 712.605 28.4735C713.324 28.5022 713.956 28.1004 714.862 28.1147C719.419 28.1578 724.78 30.4254 724.363 35.5347C719.031 36.9412 714.574 31.1287 708.983 32.8222C708.091 33.0949 707.1 34.2717 707.172 35.3481C707.373 38.5056 713.999 38.2329 714.56 41.3186C713.482 42.2945 712.289 41.376 711.398 41.5052C710.032 41.6917 707.746 43.414 706.87 44.4043C705.849 45.5524 704.958 48.4946 703.851 48.7529C702.5 49.0687 700.444 47.1598 698.417 47.6622C697.67 47.8487 696.966 48.9538 696.304 49.1117C694.637 49.4849 692.524 48.021 691.489 50.3747C692.035 52.0252 691.704 54.3358 692.84 55.2544C693.573 55.8572 694.493 55.3979 695.399 55.7998C696.462 56.2734 697.052 57.8234 697.957 58.6989C698.705 59.4021 699.51 59.4308 699.927 60.3206C700.027 61.6554 699.481 61.7989 699.625 62.6744C699.855 64.1957 701.839 64.5401 701.882 65.5735C701.954 66.8795 700.631 66.6068 700.372 67.9272C700.272 68.774 701.177 68.9892 701.278 70.0944C701.335 70.8407 700.775 71.6013 700.832 72.4481C700.904 73.6536 701.695 74.4574 701.58 75.5194C701.494 76.4379 700.832 77.1412 700.214 77.5143C697.325 75.2898 694.723 72.2184 691.618 69.3767C688.441 66.4489 683.396 62.8609 682.879 56.7183C682.864 55.771 684.546 55.0391 684.833 53.647C684.948 53.0729 684.647 52.2692 684.69 51.4798C684.79 49.3557 686.257 47.3177 686.199 46.0547C686.127 44.6769 683.971 42.0936 682.879 41.7061C682.002 42.2658 682.864 43.3566 682.72 44.2464C682.548 45.3371 681.441 46.6719 680.464 46.7723C677.617 47.0737 677.287 42.3663 672.773 43.701C671.609 44.0455 669.956 46.1696 670.358 48.7673C670.488 49.5566 672.299 50.4034 672.169 51.4798C672.04 52.5275 668.058 52.8289 667.196 52.7428C664.767 52.5131 663.516 50.3316 661.317 50.389C660.239 50.4178 659.29 51.4654 658.442 51.652C653.698 52.6997 646.64 48.8534 645.03 53.8192C644.8 54.5224 644.93 55.4409 644.728 56.1729C644.441 57.2206 643.737 58.0387 643.521 58.7132C643.334 59.2729 643.363 60.378 643.061 61.2392C642.788 62.0285 639.927 65.1142 642.457 65.9466C643.061 66.1332 643.334 65.6309 644.125 65.76C645.418 65.9753 647.575 68.4582 649.098 68.4726C650.004 68.4726 651.269 67.2383 651.959 67.2096C653.353 67.1235 654.359 68.2142 655.423 68.8314C656.444 69.4342 657.982 70.6828 658.744 70.6397C660.167 70.5536 659.491 69.3624 660.857 68.8314C663.458 69.7643 664.68 73.0796 667.182 75.706C668.087 76.6532 669.424 77.4713 670.646 78.7773C671.321 79.5093 673.42 81.4611 673.521 82.394C673.593 83.2551 672.931 83.6283 672.759 84.3889C672.514 85.494 673.089 86.2978 672.457 87.1015C670.056 86.0394 669.51 83.1834 667.785 80.7722C667.138 79.8681 666.506 78.806 665.528 77.5143C665.083 76.9403 663.487 74.9023 662.51 75.3472C660.612 76.2083 663.545 79.6528 664.019 80.4134C665.025 82.0065 666.348 84.1593 666.434 85.8385C666.492 86.9149 665.845 88.8811 665.83 90.7182C665.816 91.9668 666.089 93.1006 665.988 94.1483C665.873 95.2104 665.241 96.4159 664.925 97.5928C664.565 98.9132 664.493 100.506 664.177 101.396C663.588 103.032 661.619 104.941 660.253 105.013C659.002 105.07 658.471 103.85 657.234 103.936C655.38 104.037 655.035 106.089 653.914 107.74C654.014 109.519 654.474 110.136 654.216 111.356C653.813 113.28 651.585 113.61 651.657 115.518C651.714 117.284 653.684 117.628 654.676 118.418C656.027 119.494 658.384 121.876 659.664 123.843C660.497 125.134 661.719 127.531 661.619 128.909C661.504 130.703 657.206 133.186 655.423 132.526C653.741 131.894 654.316 129.971 653.914 128.191C653.612 126.813 652.706 126.225 652.261 125.12C652.016 124.532 652.131 123.613 651.801 122.953C650.895 121.116 649.3 122.12 647.431 120.958C646.209 120.197 646.554 118.604 646.08 117.155C645.433 115.203 642.702 114.284 640.502 114.801C638.892 115.174 638.389 116.796 636.88 117.155C634.666 115.576 637.34 111.701 634.623 111.371C632.539 111.112 631.159 114.959 629.951 116.078C629.132 116.839 627.637 116.982 627.536 118.073C627.364 120.068 629.29 119.666 630.843 120.427C632.251 121.116 632.424 123.039 633.718 123.139C634.796 123.225 635.514 121.805 636.578 121.69C638.432 121.489 639.942 122.494 641.106 123.326C640.359 125.522 636.291 127.129 636.276 130.014C636.276 131.693 637.901 131.98 639.137 133.085C640.186 134.018 641.58 136.673 643.061 138.51C643.693 139.3 644.743 139.831 645.03 140.319C645.735 141.51 645.62 142.974 646.382 143.763C646.511 144.753 646.008 144.997 646.08 145.93C646.453 147.236 648.121 146.992 648.495 148.284C648.193 151.398 649.271 154.341 647.143 155.517C646.166 161.115 645.059 165.492 641.868 168.549C638.993 171.29 635.212 172.094 631.763 173.429C630.871 173.773 630.153 174.907 629.348 175.237C627.335 176.055 623.77 175.553 623.627 178.495C623.54 179.945 625.15 180.82 625.28 182.298C625.466 184.566 623.785 186.848 622.563 187.006C621.686 187.121 619.803 186.389 619.688 184.465C619.573 182.313 621.916 181.423 622.103 180.131C622.419 177.835 620.45 175.582 618.179 175.797C616.181 175.969 611.653 180.777 611.538 183.389C611.451 185.355 614.772 189.431 615.907 190.622C620.148 195.1 624.647 197.784 623.9 208.72C622.836 211.49 620.134 212.079 618.021 213.6C616.411 214.763 615.606 218.365 612.889 218.666C611.796 218.221 612.429 216.169 612.127 215.236C611.71 213.945 609.554 213.299 608.203 211.978C607.096 210.888 606.636 209.18 605.788 208.175C604.738 206.926 603.157 206.668 601.863 205.821C601.059 205.29 600.426 203.424 599.607 203.468C598.284 203.525 598.744 205.061 598.399 207.63C598.069 210.141 596.531 212.079 597.034 215.05C597.249 216.27 598.514 217.245 599.147 218.48C600.196 220.532 600.34 222.929 601.418 224.091C602.122 224.866 603.33 225.039 604.135 225.713C605.73 227.091 608.548 230.047 609.108 231.684C609.769 233.592 609.137 235.831 609.568 237.841C610.071 240.151 612.601 241.816 611.078 244.17C609.64 243.854 608.375 242.72 607.153 241.816C605.083 240.28 604.135 238.946 602.783 236.391C602.381 235.645 601.806 234.913 601.576 234.224C601.044 232.602 601.159 230.765 600.67 228.799C600.254 227.105 598.615 224.421 597.35 223.001C596.286 221.809 594.417 221.106 594.331 219.384C594.216 216.958 595.021 214.102 594.935 211.246C594.921 210.629 594.561 210.012 594.489 209.266C594.331 207.874 594.604 206.18 594.331 204.917C594.087 203.755 593.382 202.721 592.98 201.659C592.578 200.611 592.161 199.578 591.773 198.215C591.154 196.119 590.479 192.086 589.056 191.885C587.546 191.67 586.051 195.287 584.082 195.33C583.076 195.344 581.725 194.368 581.523 193.163C581.337 192.058 581.998 190.938 581.969 189.733C581.912 187.307 580.474 186.374 579.396 184.666C578.965 183.978 578.85 183.002 578.49 182.499C577.8 181.523 576.492 180.964 575.63 179.973C574.811 179.012 573.891 177.634 573.517 176.715C572.928 175.295 572.741 173.457 571.864 173.271C571.016 173.099 570.038 174.548 569.147 174.907C568.227 175.266 565.97 175.739 565.079 175.811C562.046 176.055 559.588 175.094 559.947 179.428C559.473 181.38 557.762 181.394 556.627 182.313C555.189 183.49 554.126 185.858 552.559 187.738C551.797 188.656 550.69 189.23 550 190.091C549.425 190.809 549.238 191.943 548.635 192.632C547.025 194.454 544.61 194.612 543.517 197.153C543.46 200.152 544.696 202.434 544.423 205.29C544.293 206.596 543.488 207.744 543.359 209.094C543.258 210.242 543.747 211.476 543.517 212.71C543.388 213.37 542.77 213.715 542.31 214.519C541.893 215.236 541.72 216.198 541.404 216.686C540.887 217.461 540.053 218.006 539.593 218.681C538.831 219.771 538.673 220.546 537.94 220.676C534.634 221.25 533.814 213.701 532.363 210.543C531.687 209.094 530.321 207.773 529.646 206.022C528.869 203.999 528.639 201.444 527.533 199.148C526.598 197.181 525.305 195.215 524.672 193.177C524.14 191.455 523.666 189.302 523.163 187.393C522.631 185.37 522.042 182.829 521.955 181.251C521.826 178.897 522.329 177.447 520.748 176.543C519.296 176.959 518.649 178.71 516.982 178.71C515.372 178.71 511.045 175.366 512.31 172.381C511.261 170.587 508.601 169.611 506.575 167.501C505.41 166.296 504.375 163.411 502.348 163.167C501.788 163.095 501.069 163.469 500.537 163.526C499.258 163.655 497.001 163.382 495.564 163.526C493.752 163.698 491.524 164.186 489.224 163.885C487.744 163.698 485.918 163.354 484.395 163.167C482.468 162.923 479.895 162.378 478.817 161.172C478.142 160.426 477.883 158.058 476.704 157.742C475.31 157.355 474.534 158.646 473.24 159.005C470.48 159.766 468.166 158.33 466.297 156.838C464.975 155.776 463.767 155.23 462.833 154.484C460.533 152.647 460.13 147.107 456.652 147.064C455.444 147.05 453.518 147.954 453.331 149.604C453.216 150.753 454.481 152.891 454.999 153.767C456.695 156.623 459.8 157.699 460.734 161.545C461.352 161.832 462.631 160.885 463.293 161.732C463.882 163.382 463.278 166.439 464.644 167.157C470.911 168.391 472.708 164.272 475.511 161.373C477.135 162.65 476.604 163.77 477.164 165.176C477.739 166.626 478.645 167.745 479.723 168.262C480.485 168.607 481.448 168.291 482.598 168.807C483.316 169.138 486.278 172.51 486.378 173.701C486.45 174.764 484.423 178.395 483.805 179.313C483.202 180.203 482.282 180.677 481.994 181.48C481.778 182.112 481.85 183.432 481.692 183.834C481.419 184.552 480.053 185.499 479.277 186.36C478.458 187.278 477.495 187.996 476.719 188.714C475.77 189.589 475.181 190.795 474.16 191.254C472.147 192.144 470.25 191.756 468.583 193.062C467.49 193.909 467.49 195.832 466.168 196.866C464.788 197.942 462.43 197.942 460.432 199.033C459.153 199.736 458.377 201.085 457.27 201.559C456.81 201.745 456.249 201.587 455.76 201.745C454.754 202.047 453.834 202.908 452.9 203.195C452.152 203.424 451.362 203.31 450.643 203.554C448.314 204.357 446.187 207.185 443.858 205.534C442.751 202.492 442.579 198.645 441.3 195.947C440.638 194.569 439.359 194.139 438.885 192.689C438.813 191.527 439.992 191.842 440.092 190.881C439.704 188.929 438.166 188.01 437.232 186.36C436.772 185.556 436.556 184.394 436.024 183.475C434.227 180.332 430.677 178.71 429.987 174.792C429.8 173.73 430.016 172.898 429.843 172.08C429.541 170.745 428.794 169.338 428.032 168.276C427.457 167.473 426.278 166.927 425.617 165.736C425.186 164.961 425.085 163.856 424.711 163.024C423.216 159.665 421.046 156.694 418.674 154.341C417.438 154.556 416.13 154.656 415.512 155.618C416.13 157.986 417.064 159.967 418.07 161.947C418.99 163.756 420.298 165.693 420.931 167.731C421.161 168.477 421.132 169.468 421.391 170.257C422.34 173.127 425.315 174.003 425.919 177.318C426.321 179.528 425.833 181.064 426.379 183.289C426.896 185.413 429.512 186.676 430.605 188.714C431.482 190.379 431.496 192.732 432.114 194.325C433.02 196.65 435.535 197.655 437.39 199.205C439.057 200.611 440.236 202.764 441.616 204.271C442.421 205.147 443.528 205.305 443.729 206.266C443.988 207.486 443.298 207.902 443.125 208.979C444.29 210.428 445.411 213.098 447.351 213.327C448.142 213.413 449.148 212.452 450.37 212.237C450.988 212.136 451.664 212.351 452.181 212.237C452.986 212.064 453.691 211.203 454.596 210.974C456.134 210.572 457.917 210.73 459.872 210.428C461.712 210.141 462.977 208.275 464.4 208.806C465.952 210.844 464.831 213.169 464.4 215.136C464.241 215.825 464.241 216.542 464.098 217.131C463.278 220.345 461.151 222.742 460.173 225.627C459.872 226.517 459.929 227.608 459.57 228.526C458.448 231.425 456.105 234.281 454.28 236.664C453.259 237.998 452.354 239.218 451.261 240.28C450.183 241.342 448.861 241.931 447.639 242.993C445.224 245.117 442.708 248.145 440.998 250.958C440.337 252.049 440.02 253.298 439.33 254.216C438.353 255.537 436.829 256.182 436.01 257.474C435.363 258.493 434.932 260.345 434.199 262.182C433.365 264.248 431.64 265.655 431.942 268.511C432.057 269.602 432.876 270.29 433.149 271.41C433.624 273.333 433.264 274.955 432.991 277.022C433.839 279.504 434.457 282.26 436.01 283.896C436.197 287.556 435.751 291.115 436.01 294.201C436.168 296.181 436.815 297.631 436.168 299.454C435.593 301.061 433.408 303.874 432.1 304.879C430.677 305.984 428.492 306.271 426.968 307.591C425.904 308.51 425.028 310.132 423.95 311.208C422.167 312.988 419.738 314.653 419.58 316.447C419.493 317.48 420.27 319.059 420.485 320.063C421.075 322.733 421.65 326.579 420.643 329.464C419.551 332.593 414.017 331.947 413.399 335.248C413.212 336.252 413.772 337.056 413.7 338.147C413.643 339.065 412.637 342.395 412.191 343.385C411.53 344.878 410.006 345.552 409.029 346.83C407.793 348.437 407.174 350.748 405.866 352.441C404.084 354.738 401.683 357.149 399.383 359.129C397.385 360.866 393.777 362.66 390.644 362.933C388.818 363.091 386.849 362.416 384.908 362.76C384.204 362.875 383.428 363.665 382.493 363.851C381.947 363.952 381.386 363.736 380.84 363.851C379.892 364.038 379 364.942 378.123 364.942C376.168 364.913 373.653 362.115 373.595 359.33C373.567 358.254 374.357 357.235 374.343 356.245C374.329 355.096 373.15 353.647 372.23 351.537C371.353 349.514 371.008 347.232 370.117 345.581C369.182 343.816 367.946 342.983 367.256 341.591C365.862 338.807 365.761 335.52 365.301 332.176C365.143 331.086 364.525 329.909 364.396 328.56C364.238 326.895 364.568 325.058 364.252 323.68C364.008 322.618 363.03 321.542 362.441 320.235C361.377 317.896 360.63 314.825 359.724 313.002C358.876 311.294 357.165 309.514 357.007 307.577C356.907 306.257 357.151 303.802 357.309 302.511C357.467 301.233 358.258 300.229 358.517 298.894C358.689 298.004 358.488 296.985 358.66 295.995C359.422 291.862 363.231 290.355 362.728 285.317C362.513 283.179 361.262 282.131 361.075 279.705C360.989 278.572 361.55 277.581 361.521 276.447C361.492 274.926 360.414 272.644 359.868 271.195C358.344 267.205 357.41 263.559 355.196 260.517C353.989 258.866 352.422 257.704 351.43 256.168C350.625 254.919 349.633 252.594 349.619 251.647C349.604 250.614 350.28 249.968 350.524 248.935C350.841 247.6 350.869 245.074 351.272 242.964C351.459 242.003 352.335 239.649 352.177 238.085C352.019 236.578 350.151 233.679 348.555 233.205C346.442 232.573 344.286 234.009 341.626 233.75C339.341 231.899 339.513 227.349 336.193 226.761ZM419.594 291.546C420.298 290.211 421.161 286.48 419.594 285.575C419.493 285.575 419.393 285.575 419.292 285.575C418.631 287.068 417.912 290.699 419.594 291.546ZM417.481 253.728C417.998 252.48 419.192 251.159 418.99 249.566C418.559 246.079 413.126 247.801 412.507 250.284C412.091 251.963 412.752 253.283 412.206 254.991C412.795 256.326 414.29 256.599 416.13 256.441C417.15 255.91 417.021 254.876 417.481 253.728ZM408.296 272.372C408.899 271.037 407.347 270.176 407.088 268.755C406.786 267.09 407.433 265.124 406.183 264.234C406.039 264.234 405.881 264.234 405.737 264.234C404.63 267.19 406.183 272.07 408.296 272.372ZM511.146 92.6988C510.585 91.3353 508.946 93.1006 509.636 94.3349C510.657 94.4066 511.031 93.7034 511.146 92.6988ZM476.014 100.119C478.458 99.5447 476.043 94.8659 474.203 95.4113C471.788 96.1289 474.347 100.506 476.014 100.119ZM464.845 123.455C465.593 117.183 461.525 116.71 460.777 112.232C461.122 112.289 460.95 111.715 461.237 111.686C462.229 111.112 463.724 112.605 464.256 111.141C464.27 109.003 461.999 107.395 459.728 108.429C459.081 107.883 458.98 106.663 458.822 105.529C457.112 104.31 452.886 101.64 452.943 99.2002C452.986 97.1909 455.157 96.0571 457.615 96.1289C458.65 95.1816 457.988 92.2825 457.011 91.608C453.116 90.589 451.031 91.2779 448.559 93.4164C447.38 94.4497 446.058 95.1529 445.396 95.7701C444.793 96.3442 443.973 97.8798 444.045 98.6692C444.146 99.7887 445.483 100.449 446 101.927C446.273 102.688 446.216 103.649 446.446 104.281C447.107 106.032 448.789 107.151 450.068 108.615C450.974 109.648 453.489 111.902 453.532 113.136C453.576 114.169 452.756 114.399 452.483 115.49C452.196 116.566 451.865 119.092 452.037 120.011C452.368 122.006 454.079 122.063 455.645 122.91C457.198 123.742 458.707 125.206 460.317 125.263C462.042 125.321 463.882 124.661 464.845 123.455ZM429.398 110.423C433.48 109.534 431.626 105.4 429.541 103.908C427.974 102.788 426.091 101.812 424.266 100.463C423.202 99.6882 419.163 98.2243 419.134 96.6599C419.105 94.9664 422.138 94.4066 420.945 91.4071C418.875 90.8043 413.974 91.7515 414.304 94.4784C414.505 96.0571 416.058 95.1817 416.417 96.8321C414.937 97.4636 413.14 99.1141 411.587 98.8271C409.733 98.4826 409.259 95.7557 408.267 94.1196C406.829 94.177 405.881 92.4548 404.199 92.6701C402.431 92.8997 401.482 95.9854 400.577 97.5641C400.102 98.3821 399.326 98.8127 399.067 99.5447C398.909 99.9896 399.082 100.707 398.923 101.353C398.406 103.362 396.954 104.094 397.112 105.874C397.256 107.438 398.679 108.142 398.78 109.491C398.679 110.883 396.825 110.151 396.968 111.844C399.671 114.514 399.815 110.581 401.195 110.036C402.301 109.591 404.472 110.395 405.866 110.036C407.002 109.735 407.893 108.443 409.187 107.869C409.977 107.51 410.955 107.194 412.047 107.137C416.849 106.893 419.939 110.639 424.108 110.754C425.502 110.825 427.974 110.739 429.398 110.423ZM419.752 131.779C419.838 129.842 419.134 128.378 419.005 125.637C416.216 123.627 414.146 127.502 411.314 127.086C409.575 126.828 408.339 124.402 406.484 124.732C405.464 124.919 404.961 126.498 403.911 126.713C401.755 127.187 400.778 124.646 398.492 125.637C395.258 122.68 393.82 117.872 393.059 112.433C391.305 109.663 388.617 111.916 387.323 113.696C386.533 113.681 385.541 113.165 385.368 114.241C384.779 117.585 389.307 117.944 389.292 120.212C389.278 121.69 387.524 121.546 386.734 122.565C385.886 123.642 386.446 124.589 385.383 125.278C382.407 125.708 381.415 123.757 381.458 120.57C380.179 118.231 378.555 116.523 377.39 114.6C376.959 113.882 376.312 112.777 376.183 111.701C376.082 110.854 376.513 109.778 376.341 108.802C376.01 107.079 373.337 105.773 371.669 104.826C369.887 103.807 367.659 102.846 366.394 101.568C365.503 100.664 365.071 99.0854 364.281 98.497C363.605 97.9946 362.771 98.0951 362.168 97.5928C361.348 96.9039 361.478 95.7414 360.356 95.4113C359.796 95.1673 358.919 96.0858 358.545 96.6886C357.812 100.635 360.486 100.908 361.708 102.659C362.556 103.865 362.973 105.673 363.821 106.462C364.726 107.309 365.963 107.151 367.141 107.725C367.946 108.127 368.478 109.333 369.254 109.892C370.692 110.94 373.006 111.127 373.179 113.15C372.287 113.882 370.261 112.088 369.556 113.882C369.384 115.059 370.332 115.662 370.318 116.767C370.275 118.547 368.636 120.499 367.141 120.212C366.998 119.15 367.932 118.288 367.903 117.126C367.831 114.83 363.979 111.313 362.024 110.251C361.104 109.749 359.983 109.72 359.149 109.161C357.668 108.156 355.081 105.702 354.175 104.281C353.097 102.573 352.177 99.4011 349.806 99.5734C348.842 99.6451 348.038 100.707 347.247 101.209C346.528 101.654 345.723 102.071 344.99 102.659C344.113 103.362 343.395 104.066 342.575 104.109C340.678 104.209 339.082 102.429 337.443 102.846C336.897 102.989 336.437 103.578 335.776 104.295C335.747 105.357 336.035 106.032 335.934 107.18C335.445 108.199 333.979 108.142 332.915 108.816C331.349 109.806 329.969 111.83 328.689 113.337C327.87 114.313 327.137 115.102 327.022 115.863C326.936 116.466 327.439 117.599 327.324 118.403C327.194 119.279 325.829 121.087 324.909 121.833C324.377 122.278 323.673 122.336 323.098 122.738C321.905 123.584 321.373 124.689 320.381 124.905C317.75 125.493 312.949 124.273 312.992 127.617C313.021 129.856 315.537 129.87 317.06 129.784C319.188 129.684 320.999 130.33 322.192 129.971C323.011 129.727 323.903 128.622 324.751 128.163C325.297 127.876 325.858 127.861 326.26 127.617C327.166 127.072 327.669 126.196 328.373 125.809C329.753 125.048 332.312 124.46 333.807 124.359C335.833 124.216 337.961 124.603 340.591 124.359C341.526 124.273 342.46 123.556 343.466 123.455C345.105 123.297 347.261 124.23 348.598 124.187C349.518 124.144 350.539 123.082 351.617 123.096C352.824 123.125 354.118 124.158 354.334 125.091C354.463 125.622 354.075 126.469 354.175 127.258C354.348 128.579 355.297 129.11 355.239 129.971C355.153 131.105 352.81 132.612 353.126 133.946C353.342 134.808 355.024 135.697 355.843 136.3C356.705 136.932 358.143 137.793 359.163 137.922C360.012 138.037 360.773 137.635 361.578 137.75C362.872 137.922 364.985 138.869 365.804 139.558C367.228 140.749 367.026 142.672 368.665 143.361C369.369 143.648 370.634 143.491 371.526 143.734C373.725 144.309 375.349 146.49 376.959 146.26C379.489 145.902 378.339 143.06 378.627 141.022C379.273 136.401 386.791 136.616 388.272 139.745C389.379 140.103 390.342 139.802 391.592 140.29C392.311 140.577 392.857 141.524 393.547 141.74C394.079 141.897 394.841 141.653 395.502 141.74C398.392 142.127 401.008 144.71 403.495 144.266C405.076 143.993 406.211 142.213 407.721 142.098C410.61 141.883 412.45 144.682 415.569 143.361C417.855 142.4 417.352 139.558 418.128 136.673C418.631 134.664 419.695 133.286 419.752 131.779ZM582.328 70.08C582.932 67.7837 581.998 65.4443 580.819 63.923C579.08 64.2818 580.33 66.4489 580.215 67.7263C580.043 69.5203 578.462 70.7689 578.548 72.6059C577.973 73.424 576.981 73.7398 576.895 75.1319C577.858 75.9213 578.275 74.5004 579.008 73.6824C580.172 72.405 581.94 71.63 582.328 70.08ZM542.813 7.30432C541.16 7.30432 540.527 8.09368 539.492 8.75388C538.932 9.11268 537.767 9.3136 538.141 10.3757C539.593 10.1604 542.468 9.37101 542.813 7.30432ZM479.177 29.5499C482.727 30.5402 484.38 25.7323 482.037 23.0341C481.491 22.4026 479.637 22.1587 478.875 20.6804C477.955 18.9151 478.084 16.547 475.856 17.0637C475.827 17.279 475.885 17.5804 475.698 17.6091C475.497 21.5702 480.298 22.5605 480.226 25.7466C480.197 27.4258 478.717 27.5981 479.177 29.5499Z" fill="#EBEBEB"/>
<path d="M222.936 89.6274C222.231 89.4121 221.268 89.4552 220.377 89.2686C219.601 89.1107 218.695 88.8237 217.962 88.7232C216.093 88.4649 214.081 89.1107 212.988 87.819C214.785 84.963 217.171 82.1357 219.471 79.6815C220.161 78.9495 221.627 78.4472 221.282 76.9689C220.003 75.6198 218.422 77.055 217.214 77.8731C215.95 78.7342 214.426 79.9685 212.988 80.2268C210.487 80.6717 207.181 79.3514 205.14 80.9444C204.852 82.3079 207.454 81.7768 207.095 83.8435C206.103 84.0445 205.154 84.1306 204.378 83.2982C203.674 82.5375 204.076 81.4037 203.631 80.9444C202.854 80.1838 199.951 79.9685 198.657 80.2268C197.076 80.5426 195.667 81.6764 195.495 83.2982C197.392 84.3746 200.54 82.1931 201.23 84.9343C200.181 87.1876 197.737 88.4218 198.068 91.4501C198.197 92.6126 199.347 94.177 200.181 94.3492C201.014 94.5214 201.489 93.5311 202.294 93.6172C203.142 93.7177 202.955 94.8802 203.947 94.708C205.399 93.9617 206.204 91.5219 207.871 91.6367C209.869 94.5358 206.074 95.9566 203.947 96.8752C201.532 97.9229 198.398 98.4826 196.558 99.4155C195.595 99.9034 191.944 104.137 191.427 100.865C191.053 98.5113 193.238 99.1858 193.683 97.2483C191.355 96.7029 189.17 98.4539 187.042 99.4298C184.009 100.808 178.878 101.683 178.144 105.759C178.001 106.577 178.446 108.113 178.001 108.644C177.641 109.089 175.471 109.16 174.536 109.548C173.085 110.151 171.82 111.428 170.914 111.715C170.238 111.945 169.232 111.873 168.801 112.074C167.608 112.634 167.162 114.571 165.782 115.877C165.222 116.408 163.971 116.796 163.526 117.327C162.749 118.26 162.649 120.599 161.269 120.943C160.392 121.03 159.688 120.154 158.854 120.757C158.753 123.068 159.529 126.196 158.71 128.536C156.928 130.287 154.958 131.521 152.673 133.057C151.408 133.918 150.272 134.133 148.748 135.051C147.67 135.697 146.679 137.247 145.428 138.123C142.553 140.161 139.074 142.558 139.089 147.71C139.089 148.829 139.577 150.021 139.692 151.327C139.764 152.087 139.621 152.848 139.692 153.68C139.865 155.575 141.015 157.986 139.692 159.292C137.666 158.287 135.078 157.957 133.655 156.221C133.267 154.427 134.446 152.963 134.259 151.341C134.115 150.035 132.577 147.71 131.686 147.538C130.766 147.366 129.918 148.528 128.969 148.442C127.848 148.341 126.799 146.476 125.347 146.275C123.219 145.973 121.667 146.849 119.309 146.461C117.038 147.925 116.363 150.509 113.588 150.265C112.611 150.178 111.705 149.274 110.57 149.002C109.333 148.7 107.479 148.169 106.2 148.284C103.627 148.485 101.772 150.71 99.5587 152.087C97.6181 153.307 94.8582 154.814 94.2833 157.34C93.967 158.704 94.2401 160.612 93.8233 161.861C93.5502 162.693 92.9752 163.425 92.6158 164.215C90.9196 167.918 89.5253 172.812 90.8046 178.151C90.9915 178.94 92.6733 183.403 93.3633 184.293C94.1395 185.298 96.4251 186.79 97.7331 186.819C98.84 186.848 100.134 186.145 101.197 185.915C102.434 185.657 103.986 185.628 105.122 185.197C108.385 183.949 107.738 178.653 111.001 176.873C112.424 176.098 114.077 175.94 116.578 175.782C117.369 176.586 117.743 177.993 117.642 179.213C117.556 180.131 116.823 180.978 116.434 182.284C116.089 183.446 116.018 184.796 115.687 185.728C115.241 186.948 114.235 187.838 113.876 188.986C113.646 189.733 113.775 190.665 113.574 191.34C113.229 192.531 111.892 193.378 112.51 194.598C115.744 196.134 119.64 194.153 122.472 194.785C123.665 195.043 126.109 196.751 126.094 198.947C126.08 200.597 125.03 201.673 124.887 203.467C124.7 205.735 123.909 208.505 123.837 210.342C123.708 213.342 127.503 218.523 130.177 218.48C133.037 218.437 134.719 215.064 138.169 216.858C139.319 217.446 140.526 219.685 141.791 219.57C142.841 219.484 144.407 217.288 145.112 215.767C145.96 213.916 146.017 212.351 147.527 211.433C149.151 210.428 150.43 210.916 152.5 209.983C153.42 209.567 154.225 208.864 155.059 208.175C155.792 207.572 156.554 205.993 157.474 207.084C158.681 208.534 155.993 209.337 157.028 210.887C159.113 212.222 160.191 208.419 161.7 208.362C162.189 208.347 163.856 209.495 164.719 210.17C165.897 211.103 166.3 212.394 167.579 212.696C168.398 212.897 169.735 212.323 170.9 212.509C172.438 212.768 173.358 214.361 174.522 214.318C175.945 214.275 176.621 212.423 177.843 212.15C180.502 211.562 181.494 212.509 182.672 214.504C183.981 214.777 184.038 212.681 185.231 213.428C184.57 215.007 185.461 215.724 185.979 217.044C186.324 217.891 186.266 218.494 186.582 218.853C187.301 219.671 188.695 219.671 189.745 220.475C190.852 221.321 191.484 222.871 192.763 224.637C194.071 226.431 196.285 228.296 198.039 228.44C199.692 228.569 201.043 227.88 202.409 228.081C205.528 228.54 207.469 230.406 209.653 232.43C210.875 233.549 211.968 234.339 212.37 235.688C212.643 236.635 212.514 237.884 212.83 238.946C213.491 241.199 216.237 242.29 215.245 246.179C215.691 247.327 216.711 247.729 217.804 248.533C218.681 249.179 219.414 250.513 220.363 250.7C220.981 250.815 221.642 250.485 222.174 250.513C223.884 250.657 225.063 251.461 226.544 252.149C227.464 252.58 228.642 252.738 229.26 253.24C230.022 253.857 230.123 255.938 231.072 256.484C231.69 256.843 233.055 256.34 234.09 256.484C235.715 256.713 237.914 257.905 239.366 257.933C240.257 257.962 240.99 257.488 241.781 257.575C245.475 257.919 247.574 263.215 251.138 264.808C252.245 265.31 253.999 264.966 254.761 265.353C256.098 266.042 257.219 270.951 257.319 273.132C257.621 279.705 253.41 281.815 250.98 286.164C250.477 287.068 250.19 288.517 249.471 289.78C248.019 292.335 246.409 292.866 246.61 297.559C246.668 298.851 247.214 300.1 247.214 301.535C247.214 303.286 247.085 305.568 246.754 307.146C246.51 308.352 245.676 309.314 245.547 310.404C245.417 311.509 245.82 312.356 245.705 313.303C245.576 314.351 244.713 315.815 244.037 317.279C242.643 320.365 242.341 323.996 239.509 325.244C237.842 325.976 235.6 325.574 233.788 326.335C233.055 326.651 232.121 327.454 231.215 327.957C228.585 329.421 224.847 331.401 224.129 334.645C223.482 337.544 225.034 339.855 224.574 343.156C224.1 344.146 223.467 345.122 222.763 346.227C222.116 347.26 221.786 348.466 221.096 349.485C220.19 350.848 218.781 351.451 218.235 353.288C218.048 353.905 218.163 354.651 217.933 355.642C217.847 356.001 217.286 356.575 217.028 357.264C216.783 357.909 216.798 358.727 216.582 359.258C215.892 360.923 213.836 364.727 212.356 365.229C209.222 366.277 205.916 363.636 203.76 364.138C204.076 365.947 205.169 365.76 205.873 367.037C206.29 367.784 206.505 368.774 207.08 369.563C207.756 370.51 208.36 370.855 208.446 371.917C208.618 374.142 207.167 376.395 206.189 377.17C205.284 377.873 203.415 378.289 201.819 378.619C200.698 378.849 197.823 378.863 197.291 379.71C196.515 380.973 197.708 384.073 197.148 385.322C196.026 387.962 192.993 385.25 191.412 386.039C191.283 387.403 191.7 388.838 192.62 389.469C193.568 390.144 195.006 389.269 195.638 390.56C195.336 392.354 193.712 392.598 193.381 394.364C193.425 396.086 193.87 396.545 193.683 397.621C193.295 399.946 190.277 399.846 190.363 402.329C190.492 406.032 196.285 404.51 196.4 408.127C196.458 410.309 194.733 410.337 194.143 412.461C193.813 413.595 194.33 413.868 194.143 414.815C193.899 416.107 192.634 416.466 192.634 417.886C192.634 419.623 194.747 421.517 195.796 422.953C196.831 424.359 198.154 426.354 199.563 427.301C201.676 428.708 204.838 428.392 205.744 430.918C205.456 432.439 204.234 432.841 203.027 433.272C202.926 433.272 202.826 433.272 202.725 433.272C202.322 432.97 200.871 432.97 200.468 433.272C199.764 433.272 199.059 433.272 198.355 433.272C196.343 432.152 193.885 431.435 191.412 430.387C190.521 430.014 189.515 429.095 188.552 428.579C187.819 428.177 186.999 428.019 186.439 427.675C185.145 426.856 183.679 424.201 182.371 423.154C181.58 422.508 180.329 422.178 179.812 421.517C179.323 420.9 179.05 419.566 178.604 418.805C178.116 417.973 177.224 417.37 176.649 416.451C175.399 414.456 173.803 411.772 173.789 410.294C173.775 408.845 174.939 407.869 174.536 406.505C174.163 405.228 171.848 405.501 171.518 403.965C171.317 403.046 172.179 401.482 172.121 400.176C172.093 399.415 170.9 398.382 171.374 397.277C171.92 396.014 172.941 397.377 173.789 396.732C173.156 394.12 173.832 389.914 171.676 389.125C170.569 390.244 172.811 392.77 170.928 393.474C169.103 392.498 169.534 389.613 169.117 387.503C168.858 386.111 168.269 384.848 168.212 383.341C168.183 382.552 168.47 381.633 168.355 380.815C168.039 378.375 165.768 376.38 165.639 373.941C165.581 372.764 166.242 371.759 166.386 370.51C166.487 369.649 166.285 368.702 166.386 367.798C166.515 366.65 167.047 365.588 167.134 364.54C167.306 362.559 167.134 359.144 166.832 357.479C166.458 355.398 165.078 353.618 164.877 351.336C164.805 350.504 165.107 349.14 165.035 348.078C164.963 347.102 164.517 346.126 164.431 344.993C164.359 343.959 164.647 342.983 164.733 341.735C164.891 339.467 164.359 336.927 164.431 334.673C164.445 334.013 164.733 333.511 164.733 332.865C164.719 330.999 164.201 329.119 164.129 327.254C164.014 323.823 164.445 321.384 163.985 318.212C163.641 315.801 163.195 312.126 162.476 310.62C161.671 308.94 158.494 306.07 156.899 305.008C155.849 304.305 154.585 304.061 153.435 303.386C150.977 301.937 146.219 298.88 145.14 295.966C144.824 295.119 144.867 294 144.537 293.067C143.875 291.216 142.496 289.608 141.518 287.814C139.649 284.398 138.154 280.122 136.243 276.591C135.279 274.797 134.431 272.773 133.382 271.352C132.764 270.506 130.766 269.731 130.522 268.453C130.177 266.789 129.156 264.478 129.314 263.215C129.53 261.478 132.333 260.086 132.333 258.507C132.333 257.158 130.838 256.383 130.522 255.25C129.76 252.48 130.967 250.858 131.873 248.547C132.175 247.786 132.462 246.581 132.778 246.021C133.325 245.031 134.46 244.744 135.193 243.667C135.61 243.065 135.869 241.802 136.401 240.955C137.551 239.132 139.405 238.443 139.865 236.793C140.253 235.444 140.469 228.727 140.009 226.488C139.75 225.182 138.744 224.106 138.356 222.871C137.68 220.69 137.522 218.307 135.639 218.351C134.475 218.379 133.67 219.915 132.922 220.876C132.75 222.168 132.836 223.56 131.715 223.948C130.004 224.551 129.343 221.781 127.345 221.049C126.554 220.762 125.275 220.776 124.786 220.503C123.334 219.714 122.86 217.159 121.322 216.155C120.028 215.322 118.936 215.609 118.159 214.346C117.829 213.471 118.088 211.892 118.016 210.73C116.363 209.567 114.954 205.247 113.042 204.214C111.763 203.539 109.808 203.597 108.212 202.951C107.465 202.649 106.89 202.248 106.099 202.047C105.136 201.788 104.144 201.774 103.382 201.315C100.392 199.535 98.7825 193.78 95.0882 193.895C93.507 193.938 91.9977 195.717 90.5602 195.703C89.1372 195.689 86.7654 194.34 84.9829 193.349C83.1286 192.316 81.0874 191.756 79.5493 190.823C78.3131 190.063 77.465 188.685 76.3869 188.111C75.5676 187.666 74.3601 187.594 73.6701 187.207C72.707 186.661 71.7008 185.484 70.5077 184.494C69.3721 183.547 68.1359 182.112 68.0928 180.877C68.0497 179.457 69.1853 178.251 69.3003 176.888C69.6884 172.582 67.0435 169.482 65.376 166.942C64.1398 165.047 62.7023 163.44 61.4518 161.689C61.5236 160.526 61.5236 160.311 61.4518 159.163C60.5174 158.072 59.7268 156.45 58.735 154.814C57.8437 153.336 56.0901 151.772 55.8744 150.107C55.6013 148.069 56.5213 146.289 55.8744 144.309C54.7963 141.036 51.0158 142.515 51.5046 146.849C51.6483 148.04 53.0426 149.647 53.4595 150.824C53.8907 152.03 53.8045 153.537 54.207 154.986C54.5951 156.379 55.7594 157.584 56.1619 159.148C56.7944 161.631 56.78 164.287 57.3694 165.837C57.8869 167.214 59.7987 168.52 58.7206 170.171C57.2975 170.53 56.7369 168.807 55.8601 167.817C55.3713 167.257 53.5745 166.21 53.3014 164.932C53.0714 163.87 53.862 162.435 53.6033 161.129C53.0858 158.574 48.7878 158.517 48.7734 155.876C48.759 154.226 50.5702 154.025 50.5846 152.432C50.599 150.681 48.6009 149.217 48.1697 147.724C47.7816 146.361 47.7097 144.208 47.5659 142.299C47.4222 140.505 47.6091 138.439 47.2641 137.046C46.9622 135.798 45.3954 134.09 44.4035 133.43C43.0811 132.554 42.0317 132.913 41.3849 131.621C40.8243 130.488 40.4505 128.134 40.3355 126.914C40.1199 124.732 40.2924 122.364 40.1774 120.039C40.0768 117.714 39.8755 115.49 40.1774 112.978C40.9249 111.227 42.2905 110.366 43.0523 108.629C43.5842 107.424 43.6561 105.931 44.2598 104.654C45.3666 102.286 47.7672 100.104 49.3915 97.7793C51.1308 95.2677 52.7408 92.8709 53.7614 90.0005C54.1207 88.9816 55.1126 86.7283 54.9688 85.4797C54.7676 83.7431 52.0364 82.3079 52.252 80.2412C52.3958 78.9639 53.9195 78.9782 54.3651 77.7152C54.5951 77.055 54.8107 75.2467 54.8251 74.4573C54.8538 72.7064 54.0776 70.898 54.3651 69.0323C54.6095 67.4392 56.5788 66.7934 55.5726 65.0568C54.5663 63.3345 52.7551 65.9897 51.6483 64.8702C50.6277 63.8368 51.8496 62.6026 51.9502 60.7081C51.9933 59.9475 51.5908 59.1007 51.6483 58.541C51.7346 57.7372 53.057 56.3738 52.6977 55.8284C51.8783 54.5942 50.9727 51.4511 49.2334 50.4034C47.0197 49.0686 44.6191 49.9728 41.543 49.3126C39.6599 48.9108 38.7543 46.801 37.015 46.9589C35.9369 47.0594 35.3188 48.5376 33.8526 49.3126C32.3864 50.0733 30.4746 49.8149 29.0228 50.2168C27.5853 50.6187 26.8953 51.8099 25.4004 51.6664C24.1642 51.5515 24.1498 50.2024 22.6836 50.0446C22.1086 49.9728 21.0305 50.4751 20.1249 50.59C17.7962 50.877 13.5845 51.0205 11.227 50.4034C9.07086 49.8436 7.73403 49.0256 5.34785 47.6908C3.50791 46.6432 0.17301 45.4232 0.316756 43.8445C0.403003 42.8255 3.46478 41.7635 4.68662 41.3186C6.65594 40.601 7.8634 39.4384 9.35835 39.3236C9.93334 39.2806 10.6952 39.7542 11.4714 39.6968C12.2476 39.625 13.1964 38.7783 14.1882 38.606C16.2869 38.2472 19.2624 38.7352 19.0181 36.2523C17.4225 34.731 10.8964 37.3718 10.7239 34.0851C10.6233 32.0902 13.1964 31.4874 15.0938 31.0138C16.8188 30.5689 19.4493 29.837 20.973 29.9231C22.6979 30.0235 24.9548 32.3342 25.9466 29.7508C26.421 27.8994 25.3572 26.3638 25.041 24.8568C26.3203 22.7327 28.6778 23.0054 30.4746 22.6897C32.5301 22.3309 34.1976 21.8859 36.21 20.8813C37.9781 19.9915 39.8468 19.403 41.9455 19.073C44.001 18.7572 45.9847 17.8243 47.8247 17.6234C49.3484 17.4512 50.7427 17.609 52.1945 17.2646C53.4883 16.9632 54.8538 16.1021 56.2769 16.1738C57.2256 16.2313 58.0306 17.0637 58.9937 17.2646C59.8849 17.4512 60.9199 17.2072 61.8686 17.4512C62.6017 17.6378 63.2486 18.2262 63.9817 18.3554C65.1173 18.5563 66.3535 18.1688 67.446 18.3554C68.4522 18.5276 69.3146 19.2882 70.3065 19.4461C72.6352 19.8049 75.2945 19.3026 77.5513 19.8049C78.4137 19.9915 79.1756 20.5082 80.1099 20.7091C81.0012 20.8957 81.9643 20.6804 82.8267 20.8813C84.0198 21.1683 85.026 22.5318 86.291 22.6897C88.6197 22.9767 91.2502 21.4697 93.6795 21.2401C95.4476 21.0822 97.2588 21.3262 99.1131 20.8813C100.795 20.4794 102.434 19.6901 103.943 19.6183C104.762 19.5753 105.452 19.9197 106.2 19.8049C106.976 19.6757 107.91 18.5563 108.758 18.7142C109.88 18.9294 109.678 20.6373 110.871 21.0679C112.18 20.2498 113.502 21.1253 114.939 21.0679C116.348 21.0105 117.613 20.2355 119.166 20.5225C121.911 21.0392 125.749 24.2684 127.905 22.5174C128.452 22.0725 128.322 21.3119 128.811 20.1637C129.472 18.5993 130.795 16.7766 130.478 14.5521C127.46 14.6095 124.57 16.3891 121.121 16.547C117.642 13.9349 122.055 12.3132 124.585 11.1219C126.684 10.1317 128.337 7.95015 130.924 7.50524C133.037 7.14644 135.351 8.06496 137.853 8.40941C139.319 8.61034 140.771 8.28024 141.619 8.58164C143.099 9.11266 143.861 10.878 145.083 11.2942C145.615 11.4807 146.477 11.452 147.196 11.653C148.547 12.0261 149.769 12.8872 151.12 11.653C152.184 11.8826 152.313 13.2317 153.377 13.4613C154.383 12.8155 155.145 11.165 156.698 10.7488C157.373 10.5622 158.078 10.878 158.811 10.7488C160.047 10.5048 161.686 8.50988 162.433 10.3756C162.131 11.6817 160.478 11.8826 159.573 12.9159C158.768 13.8345 157.517 15.9442 157.618 16.8914C157.79 18.6137 159.946 17.9535 160.032 20.1494C159.716 21.4123 158.48 20.8526 157.474 21.4123C156.539 21.929 156.194 22.991 155.217 23.2207C152.471 23.8378 150.2 22.3883 147.828 22.5031C147.714 23.7374 149.007 24.455 149.64 24.8568C151.796 26.2202 153.55 26.0193 156.568 25.9476C158.121 25.9045 159.903 26.5073 161.24 25.4022C162.088 24.7133 162.045 23.1776 162.749 22.3309C163.597 21.3119 165.567 20.2785 166.817 20.5225C167.507 20.666 168.47 21.642 168.485 22.3309C168.513 23.9813 166.544 23.4503 166.53 25.23C167.809 26.1485 171.173 24.2253 171.36 22.6897C171.489 21.5702 170.267 20.9244 170.31 19.7906C170.382 17.8961 172.524 17.9248 172.265 15.9873C171.23 15.0113 170.152 16.2025 169.088 15.9873C167.608 15.6859 166.271 13.5618 165.624 12.184C166.285 11.2081 167.651 11.8539 168.643 12.0118C169.75 10.1747 171.82 9.45711 174.68 9.11266C175.701 8.99784 177.052 8.50988 177.541 9.65804C177.785 11.3659 175.428 12.3993 175.873 14.3655C177.9 14.9683 178.576 11.6817 180.243 10.3756C180.976 9.80156 182.04 9.41405 183.104 8.92608C184.038 8.49552 185.059 7.44783 185.82 7.47653C186.654 7.50524 186.798 8.3233 187.632 8.73951C188.379 9.11266 189.342 8.48117 189.587 9.64368C187.833 13.2747 181.321 11.1937 179.625 14.8965C179.999 17.3794 178.604 19.7475 179.783 21.4123C180.617 22.6035 182.514 21.7855 182.946 23.0341C183.535 24.6989 181.12 24.6989 181.738 26.6508C183.334 27.799 185.231 25.5601 186.712 24.6702C188.293 23.7086 190.305 22.5748 190.478 20.3216C189.687 18.4845 186.712 19.9054 186.252 17.9678C186.007 16.9202 187.157 14.5664 187.459 14.1646C189.026 12.0548 194.531 9.0409 198.47 9.45711C199.218 9.54322 199.979 10.0886 200.727 10.1891C203.314 10.5048 206.39 8.83997 208.417 10.1891C210.056 9.0409 212.025 10.3469 214.296 10.0025C216.05 11.2511 215.576 13.8919 218.221 15.0687C218.939 15.3845 219.845 15.1549 220.779 15.4275C221.484 15.6285 222.231 16.6188 223.036 17.0637C224.186 17.6808 225.049 17.5373 225.293 18.5132C225.537 19.4605 224.459 20.0776 224.546 21.0535C225.192 21.6994 224.646 22.661 225.005 23.5795C225.652 25.2587 227.291 25.1295 228.93 25.9332C230.08 26.4929 232.509 28.2152 232.394 29.5499C232.322 30.4397 230.108 32.0185 229.375 32.449C228.858 32.7504 226.314 34.2287 225.451 34.0708C224.028 33.8268 223.467 30.3536 221.527 30.4541C220.679 30.4971 219.888 31.1143 219.859 32.449C219.831 34.8315 222.073 34.9176 222.116 36.9699C222.174 39.4241 220.995 39.5963 219.256 41.132C218.005 40.5292 216.956 39.6681 215.331 39.5102C214.368 40.888 216.913 41.376 216.079 43.1269C213.65 43.744 211.81 42.3088 209.596 41.5051C208.906 41.2612 207.9 41.3473 207.339 40.9598C206.477 40.3713 206.232 38.606 205.528 37.7019C204.709 36.6542 203.084 35.1615 201.762 35.1759C199.893 35.1759 197.205 37.9602 195.725 35.3481C196.745 31.2004 201.589 34.2861 204.781 32.8222C205.974 32.2768 206.376 30.7698 207.354 30.1096C209.308 28.7749 212.471 28.5883 212.183 25.9476C212.04 24.6128 210.487 24.6415 209.625 23.9526C208.446 23.0341 207.54 19.7762 205.859 19.6183C204.996 19.5322 204.364 20.422 203.444 20.5225C201.489 20.7378 199.318 19.5753 197.564 20.5225C196.745 21.0822 197.291 21.9864 196.659 23.0485C196.127 23.9239 194.891 24.1679 194.402 25.0434C193.827 26.0624 193.942 27.3254 193.195 28.1147C191.958 29.4351 189.342 29.636 187.761 30.2819C187.057 30.5689 186.18 31.5592 185.504 31.5592C184.254 31.5448 183.722 29.5499 182.342 30.2819C182.227 32.2194 184.052 33.0087 185.202 33.8986C186.453 34.8602 187.775 35.8361 188.221 37.5153C186.999 40.644 185.03 37.3574 183.089 37.3431C180.947 37.3287 177.828 42.2371 176.003 38.2472C176.463 36.1375 178.389 35.8074 178.863 33.7263C176.736 34.1569 174.881 36.3097 172.38 36.9843C171.331 37.2569 170.31 37.1995 169.362 37.5296C167.55 38.1611 166.3 39.7685 164.388 40.6153C163.641 40.9454 162.749 40.8449 161.973 41.1607C160.147 41.8926 157.977 43.1987 156.094 44.4186C154.168 45.6672 152.011 46.9732 150.818 48.2219C150.172 48.8821 148.504 51.2645 148.562 52.0252C148.633 53.1016 150.33 53.4604 150.373 54.5655C150.33 55.2256 149.395 56.6752 150.071 57.6368C150.689 58.5266 151.925 57.809 153.233 57.9956C155.533 58.34 157.043 60.622 158.811 61.7989C160.147 62.6887 162.131 63.7364 163.641 63.966C165.71 64.2818 168.025 63.2341 168.312 65.229C168.585 67.1378 166.357 67.8267 166.199 69.0323C167.32 70.7976 165.437 71.6443 165.452 73.1944C165.452 74.4573 166.745 76.3374 167.867 76.4523C169.39 76.6101 171.604 74.6583 172.236 72.8356C172.984 70.6684 172.668 67.7262 174.048 66.1475C181.077 66.3772 187.014 62.3155 186.568 53.6613C186.525 52.8002 186.122 51.7094 186.266 50.7622C186.482 49.37 188.494 48.1932 188.221 46.4279C190.19 45.6959 190.104 41.907 192.145 41.3616C193.856 40.9024 195.782 42.8112 198.024 42.6246C198.758 42.5672 199.706 41.7778 200.439 41.907C201.92 42.151 202.797 44.3325 203.904 45.3371C204.881 46.2413 205.916 45.9543 206.16 47.1455C205.873 49.1691 204.68 49.2265 204.795 51.121C204.91 52.7858 206.347 54.0344 207.052 54.2067C208.159 54.4506 209.725 53.7474 210.818 53.1159C212.83 51.9677 214.57 48.5089 216.251 48.9538C217.574 49.2983 218.623 54.3645 218.81 56.1872C219.026 58.1391 218.594 59.6317 218.666 61.4401C218.868 64.497 222.059 64.1813 223.64 65.7744C224.114 66.2623 224.301 67.4966 224.704 68.1281C225.465 69.348 226.4 69.348 226.515 70.654C226.802 73.7828 224.157 74.0411 224.402 77.5287C223.856 78.8777 222.476 78.806 222.591 80.6C222.763 83.456 226.184 81.2745 227.119 83.4991C227.622 84.6903 227.032 85.5945 226.659 87.3024C227.823 88.9816 227.823 91.6367 225.753 91.651C224.546 91.608 224.201 90.0005 222.936 89.6274ZM59.8993 84.9199C60.618 84.0445 59.5974 82.1931 58.5337 82.925C58.4331 83.5852 58.735 85.1926 59.8993 84.9199ZM165.164 101.382C164.532 100.65 162.491 100.851 161.096 101.023C160.104 101.138 158.94 101.396 158.839 102.286C160.406 103.147 164.675 103.764 165.164 101.382ZM157.33 98.3104C158.509 97.1909 157.991 94.9089 156.726 94.5071C156.238 94.3492 155.576 94.9376 154.771 94.8659C153.923 94.7941 153.061 93.8469 152.356 93.7751C151.149 93.646 149.927 94.3636 149.496 95.0381C149.453 96.1145 150.157 96.3011 150.1 97.3918C148.633 98.6548 149.41 102.846 150.847 103.003C152.385 103.161 153.176 98.3534 155.217 97.9372C155.95 97.7937 156.338 98.4539 157.33 98.3104ZM155.217 105.544C153.075 104.625 151.092 106.161 149.338 106.448C148.288 106.62 146.377 106.19 146.621 108.07C146.822 109.605 148.792 109.046 149.942 108.615C152.313 107.711 153.823 106.936 155.217 105.544ZM148.576 91.7945C151.58 90.2589 147.987 85.5371 146.621 85.1065C144.177 84.3459 140.699 87.2593 137.867 88.1778C136.271 88.6945 134.762 88.7376 134.403 90.345C135.826 93.1723 138.658 89.7279 140.742 90.1584C141.791 90.3881 142.409 92.1103 143.459 92.3256C144.163 92.4835 148.288 91.9381 148.576 91.7945ZM146.463 94.6936C145.845 93.8182 142.452 94.7941 141.489 95.5978C140.828 96.1576 140.368 97.4923 139.678 98.4969C138.959 99.5303 138.169 100.32 137.565 101.209C137.019 102.013 133.971 107.295 136.358 107.897C137.378 108.156 139.477 105.616 139.678 104.64C140.354 101.324 141.604 98.9562 143.746 97.4062C144.997 96.502 146.262 96.6168 146.463 94.6936ZM127.618 74.4286C129.3 74.3569 130.435 68.3864 127.618 69.1758C125.72 69.7068 125.26 74.5291 127.618 74.4286ZM119.467 210.127C119.539 209.854 119.683 209.668 119.769 209.395C119.309 207.601 117.872 210.055 119.467 210.127ZM55.6732 58.6845C55.7019 58.34 55.5007 58.2826 55.5294 57.9525C55.0695 57.9525 54.5376 57.8521 54.6238 58.4979C54.8395 59.0289 55.4144 59.115 55.6732 58.6845ZM214.181 30.2675C214.929 30.3823 215.346 30.0953 215.231 29.1911C214.57 28.6314 213.592 29.3633 214.181 30.2675ZM196.846 12.5428C196.645 12.2988 196.127 12.2988 195.94 12.5428C195.94 12.7868 195.94 13.0164 195.94 13.2604C196.573 13.4326 196.688 12.9734 196.846 12.5428ZM139.534 26.4786C140.037 26.0911 140.814 25.5601 140.44 24.6702C138.773 23.7374 135.955 24.4406 133.497 24.1249C132.103 21.7568 129.774 21.398 129.573 25.2156C132.376 27.9425 136.631 23.9383 139.534 26.4786ZM112.525 45.1075C113.387 44.7487 114.566 44.9353 114.781 43.8302C114.077 43.1556 113.358 42.2371 112.525 42.2084C111.432 42.1653 110.9 43.3278 109.808 44.0167C108.528 44.8204 106.76 45.0214 106.645 46.3705C108.988 46.9302 111.087 45.7103 112.525 45.1075ZM111.777 32.0902C112.74 31.8893 113.732 32.4203 114.35 31.3726C113.631 27.3828 109.032 29.8226 106.358 30.1096C105.797 31.2435 105.035 32.1476 104.849 33.7263C106.918 34.3435 109.434 32.5638 111.777 32.0902ZM157.028 217.001C158.221 216.772 157.876 213.485 156.424 214.289C155.332 214.892 155.893 217.217 157.028 217.001Z" fill="#EBEBEB"/>
</svg>
