<svg width="554" height="338" viewBox="0 0 554 338" fill="none" xmlns="http://www.w3.org/2000/svg">
<path d="M517.711 84.5677C517.556 82.8529 516.767 81.2263 515.654 79.9162C514.563 78.6282 513.118 77.5978 511.473 77.2004C509.726 76.7735 507.816 77.0973 506.305 78.0762C505.412 78.6577 504.668 79.4673 504.144 80.3946C503.68 79.5482 503.023 78.7975 502.242 78.2308C500.789 77.1783 498.894 76.7588 497.125 77.0973C495.466 77.4138 493.969 78.3706 492.811 79.5997C491.632 80.8583 490.754 82.4333 490.518 84.1409C490.216 86.2753 490.57 88.6305 491.639 90.5073C492.767 92.4871 494.625 94.1137 496.55 95.3354C499.787 97.3962 504.048 99.9796 504.048 99.9796C504.048 99.9796 507.772 97.3447 511.112 95.4458C513.095 94.3197 515.035 92.7889 516.259 90.8679C517.431 89.05 517.903 86.7169 517.711 84.5677Z" fill="#EBEBEB"/>
<path d="M489.383 39.6202C489.353 39.0167 489.102 38.4353 488.726 37.9569C488.358 37.4858 487.871 37.1031 487.296 36.9412C486.691 36.7645 486.013 36.8529 485.467 37.1767C485.143 37.3681 484.87 37.6404 484.678 37.9569C484.524 37.6551 484.31 37.3828 484.044 37.1693C483.55 36.7793 482.887 36.6026 482.267 36.6983C481.677 36.7866 481.139 37.0957 480.719 37.5153C480.284 37.9421 479.959 38.4794 479.849 39.0756C479.709 39.8189 479.805 40.6506 480.151 41.3277C480.52 42.0417 481.147 42.6378 481.803 43.0941C482.909 43.8669 484.369 44.8311 484.369 44.8311C484.369 44.8311 485.718 43.9626 486.913 43.3444C487.628 42.9764 488.328 42.4685 488.785 41.8135C489.22 41.1879 489.419 40.3783 489.383 39.6202Z" fill="#EBEBEB"/>
<path d="M68.159 148.938C68.1295 148.335 67.8788 147.753 67.5027 147.275C67.1341 146.804 66.6474 146.421 66.0723 146.259C65.4677 146.083 64.7893 146.171 64.2437 146.495C63.9193 146.686 63.6465 146.958 63.4548 147.275C63.2999 146.973 63.0861 146.701 62.8207 146.487C62.3266 146.097 61.6631 145.921 61.0437 146.016C60.4538 146.105 59.9156 146.414 59.4953 146.833C59.0603 147.26 58.7358 147.798 58.6252 148.394C58.4851 149.137 58.581 149.969 58.9275 150.646C59.2962 151.36 59.9229 151.956 60.5792 152.412C61.6852 153.185 63.1451 154.149 63.1451 154.149C63.1451 154.149 64.4944 153.281 65.6889 152.662C66.4041 152.294 67.1046 151.787 67.5617 151.132C67.9967 150.506 68.1958 149.696 68.159 148.938Z" fill="#EBEBEB"/>
<path d="M73.7332 43.4989C73.7037 42.8954 73.453 42.314 73.0769 41.8356C72.7083 41.3645 72.2216 40.9818 71.6465 40.8199C71.0419 40.6433 70.3636 40.7316 69.8179 41.0554C69.4935 41.2468 69.2207 41.5191 69.029 41.8356C68.8742 41.5338 68.6603 41.2615 68.3949 41.0481C67.9009 40.658 67.2373 40.4813 66.6179 40.577C66.028 40.6653 65.4898 40.9745 65.0695 41.394C64.6345 41.8209 64.3101 42.3581 64.1995 42.9543C64.0594 43.6977 64.1552 44.5293 64.5018 45.2065C64.8704 45.9204 65.4972 46.5165 66.1534 46.9729C67.2594 47.7457 68.7193 48.7098 68.7193 48.7098C68.7193 48.7098 70.0686 47.8413 71.2631 47.2231C71.9783 46.8551 72.6788 46.3473 73.1359 45.6922C73.571 45.074 73.77 44.257 73.7332 43.4989Z" fill="#EBEBEB"/>
<path d="M300.013 28.3521C299.984 27.7485 299.733 27.1671 299.357 26.6887C298.989 26.2177 298.502 25.8349 297.927 25.673C297.322 25.4964 296.644 25.5847 296.098 25.9085C295.774 26.0999 295.501 26.3722 295.309 26.6887C295.154 26.3869 294.941 26.1146 294.675 25.9012C294.181 25.5111 293.518 25.3345 292.898 25.4301C292.308 25.5185 291.77 25.8276 291.35 26.2471C290.915 26.674 290.59 27.2113 290.48 27.8074C290.34 28.5508 290.435 29.3825 290.782 30.0596C291.151 30.7735 291.777 31.3697 292.434 31.826C293.54 32.5988 295 33.5629 295 33.5629C295 33.5629 296.349 32.6945 297.543 32.0762C298.259 31.7082 298.959 31.2004 299.416 30.5453C299.844 29.9197 300.05 29.1101 300.013 28.3521Z" fill="#EBEBEB"/>
<path d="M519.827 169.988C519.798 169.384 519.547 168.803 519.171 168.325C518.802 167.853 518.316 167.471 517.741 167.309C517.136 167.132 516.458 167.221 515.912 167.544C515.588 167.736 515.315 168.008 515.123 168.325C514.968 168.023 514.754 167.75 514.489 167.537C513.995 167.147 513.331 166.97 512.712 167.066C512.122 167.154 511.584 167.463 511.164 167.883C510.728 168.31 510.404 168.847 510.293 169.443C510.153 170.187 510.249 171.018 510.596 171.695C510.964 172.409 511.591 173.005 512.247 173.462C513.353 174.235 514.813 175.199 514.813 175.199C514.813 175.199 516.163 174.33 517.357 173.712C518.072 173.344 518.773 172.836 519.23 172.181C519.665 171.556 519.864 170.746 519.827 169.988Z" fill="#EBEBEB"/>
<path d="M56.8556 91.7143C56.7819 90.1761 56.1404 88.6967 55.1892 87.4749C54.2602 86.2826 53.0067 85.3111 51.5542 84.8916C50.0131 84.45 48.2878 84.6634 46.9016 85.4804C46.0758 85.9661 45.3827 86.658 44.8813 87.4749C44.4979 86.7021 43.9449 86.0029 43.2592 85.4657C41.9983 84.4721 40.3172 84.0231 38.7319 84.2586C37.2352 84.4794 35.8637 85.2817 34.7798 86.3341C33.6738 87.4161 32.8407 88.7924 32.5605 90.3085C32.2139 92.2074 32.4425 94.3271 33.3273 96.042C34.2637 97.8525 35.8637 99.3761 37.5375 100.546C40.3541 102.504 44.0702 104.977 44.0702 104.977C44.0702 104.977 47.4988 102.754 50.5514 101.187C52.3652 100.252 54.157 98.9565 55.3293 97.2858C56.4353 95.7181 56.9441 93.6426 56.8556 91.7143Z" fill="#EBEBEB"/>
<path d="M435.888 140.283C434.074 138.266 431.862 136.353 431.265 133.71C430.719 131.282 431.626 128.522 430.38 126.365C428.853 123.708 424.916 123.414 423.065 120.963C422.166 119.778 421.878 118.225 420.993 117.033C419.482 115.001 416.614 114.493 414.099 114.795C411.585 115.097 409.167 116.032 406.645 116.245C403.18 116.532 399.589 115.45 396.271 116.488C392.614 117.636 390.409 120.911 388.057 124.084L384.99 127.771C384.355 128.404 383.677 128.985 382.932 129.478C381.635 130.34 380.138 130.943 379.024 132.04C376.643 134.38 376.908 138.818 379.548 140.864C376.886 141.748 375.013 144.559 375.212 147.349C375.323 148.887 375.979 150.315 376.459 151.779C376.938 153.244 377.24 154.87 376.643 156.291C376.046 157.711 374.254 158.705 372.897 157.969C373.399 159.956 374.851 161.678 376.724 162.51C376.009 163.261 374.999 163.725 373.966 163.776C376.871 170.334 384.569 173.69 391.751 173.624C398.932 173.557 405.76 170.739 412.389 167.971L431.648 162.672C433.336 162.26 434.015 160.192 433.963 158.455C433.912 156.718 433.447 154.915 434.044 153.281C434.863 151.043 437.436 149.821 438.299 147.599C439.287 145.082 437.701 142.3 435.888 140.283Z" fill="#263238"/>
<path d="M408.12 119.631L407.058 119.587C395.555 119.763 389.281 129.618 389.775 141.093L389.347 180.623C389.266 187.777 394.811 193.731 401.963 194.188C409.469 194.659 415.906 188.903 416.267 181.411C416.363 179.335 416.444 177.885 416.451 177.885C416.451 177.885 427.556 176.649 428.168 165.645C428.463 160.332 428.175 149.336 427.799 139.385C427.393 128.676 418.826 120.094 408.12 119.631Z" fill="#FFBE9D"/>
<path d="M416.444 177.87C416.444 177.87 409.476 177.981 402.265 173.02C402.265 173.02 405.244 181.205 416.297 180.682L416.444 177.87Z" fill="#EB996E"/>
<path d="M423.176 148.173C423.168 149.005 422.461 149.682 421.591 149.696C420.721 149.704 420.02 149.041 420.027 148.21C420.035 147.378 420.743 146.693 421.613 146.686C422.475 146.671 423.176 147.341 423.176 148.173Z" fill="#263238"/>
<path d="M425.241 143.838C425.034 144.037 423.884 143.102 422.188 143.036C420.499 142.94 419.217 143.757 419.04 143.543C418.951 143.448 419.165 143.087 419.725 142.719C420.278 142.351 421.2 142.005 422.254 142.057C423.309 142.108 424.179 142.535 424.673 142.955C425.182 143.374 425.344 143.749 425.241 143.838Z" fill="#263238"/>
<path d="M407.087 148.173C407.08 149.005 406.372 149.682 405.502 149.696C404.632 149.704 403.931 149.041 403.939 148.21C403.946 147.378 404.654 146.693 405.524 146.686C406.394 146.671 407.095 147.341 407.087 148.173Z" fill="#263238"/>
<path d="M408.606 143.816C408.4 144.014 407.242 143.08 405.554 143.013C403.865 142.918 402.582 143.735 402.405 143.521C402.317 143.426 402.531 143.065 403.091 142.697C403.644 142.329 404.566 141.983 405.62 142.035C406.674 142.086 407.544 142.513 408.038 142.933C408.547 143.345 408.709 143.727 408.606 143.816Z" fill="#263238"/>
<path d="M414.129 157.071C414.129 156.975 415.183 156.836 416.901 156.696C417.336 156.666 417.749 156.6 417.838 156.313C417.956 156.004 417.793 155.533 417.602 155.018C417.24 153.958 416.864 152.839 416.466 151.676C414.888 146.914 413.768 143.006 413.959 142.947C414.151 142.888 415.589 146.693 417.159 151.455C417.535 152.626 417.897 153.744 418.243 154.819C418.383 155.319 418.641 155.886 418.398 156.526C418.265 156.843 417.941 157.064 417.661 157.13C417.381 157.204 417.137 157.196 416.923 157.204C415.198 157.211 414.129 157.174 414.129 157.071Z" fill="#263238"/>
<path d="M409.093 158.028C409.373 158.021 409.292 159.861 410.811 161.229C412.33 162.606 414.298 162.481 414.298 162.738C414.321 162.856 413.849 163.077 413.015 163.062C412.204 163.055 411.025 162.746 410.096 161.907C409.167 161.068 408.805 159.978 408.768 159.228C408.739 158.462 408.968 158.013 409.093 158.028Z" fill="#263238"/>
<path d="M408.813 136.941C408.628 137.398 406.94 137.103 404.942 137.258C402.936 137.368 401.314 137.884 401.063 137.464C400.953 137.258 401.255 136.838 401.919 136.426C402.582 136.007 403.622 135.631 404.824 135.55C406.026 135.469 407.109 135.705 407.817 136.029C408.54 136.353 408.894 136.728 408.813 136.941Z" fill="#263238"/>
<path d="M424.783 138.185C424.466 138.553 423.316 138.104 421.915 138.031C420.514 137.906 419.312 138.178 419.054 137.766C418.944 137.567 419.143 137.192 419.681 136.846C420.212 136.507 421.074 136.242 422.04 136.316C423.006 136.389 423.825 136.772 424.297 137.184C424.776 137.604 424.923 138.001 424.783 138.185Z" fill="#263238"/>
<path d="M390.32 149.284C390.136 149.196 382.836 146.723 382.755 154.26C382.674 161.796 390.269 160.324 390.283 160.111C390.298 159.89 390.32 149.284 390.32 149.284Z" fill="#FFBE9D"/>
<path d="M388.013 157.226C387.983 157.204 387.88 157.314 387.659 157.417C387.437 157.513 387.069 157.579 386.678 157.424C385.882 157.123 385.225 155.849 385.203 154.495C385.189 153.811 385.343 153.156 385.594 152.618C385.83 152.066 386.191 151.691 386.597 151.617C386.995 151.529 387.283 151.772 387.371 151.985C387.467 152.199 387.423 152.346 387.46 152.361C387.482 152.383 387.622 152.236 387.563 151.926C387.533 151.779 387.445 151.595 387.268 151.448C387.091 151.301 386.825 151.22 386.545 151.249C385.963 151.286 385.432 151.809 385.159 152.405C384.849 153.001 384.665 153.73 384.68 154.502C384.709 156.019 385.476 157.454 386.56 157.778C387.091 157.925 387.533 157.77 387.762 157.594C387.998 157.41 388.035 157.24 388.013 157.226Z" fill="#EB996E"/>
<path d="M390.07 127.189C391.33 124.915 393.004 123.164 394.98 121.795C397.148 120.013 399.581 118.571 402.243 117.688C406.394 116.311 411.12 116.392 414.999 118.416C416.407 119.152 417.712 120.19 418.604 121.485C421.31 123.164 424.002 126.292 422.925 126.88L421.428 125.298C421.428 125.298 420.772 126.645 418.037 128.713C417.978 128.757 417.911 128.801 417.845 128.838C417.602 129.015 417.336 129.169 417.049 129.28L416.901 129.375C413.679 130.45 411.585 130.016 408.37 128.897C406.151 128.124 404.131 126.866 401.978 125.924C400.105 125.924 398.261 126.579 396.809 127.845C396.536 128.08 396.322 128.293 396.197 128.463C395.4 129.501 395.356 130.95 395.651 132.224C395.946 133.497 396.536 134.689 396.905 135.948C397.576 138.259 397.472 140.717 397.369 143.117C397.214 146.502 397.023 150.02 395.356 152.972C394.575 154.355 392.886 155.724 391.507 154.26C390.932 153.649 390.696 152.795 390.726 151.956C390.822 149.66 388.801 148.6 387.747 146.936C386.899 145.589 386.737 143.926 386.693 142.329C386.567 137.089 387.533 131.76 390.07 127.189Z" fill="#263238"/>
<path d="M390.32 179.88C390.32 179.88 399.397 188.285 406.711 188.248C414.026 188.204 415.78 184.377 415.78 184.377L419.895 189.61C419.895 189.61 420.286 223.753 420.743 224.342C421.2 224.938 416.437 227.911 416.437 227.911L392.164 193.135L390.32 179.88Z" fill="#5D89AB"/>
<path d="M441.727 305.309C441.727 305.309 445.163 304.175 446.1 301.003C447.036 297.831 444.478 266.051 444.478 266.051L442.546 264.13L444.021 262.952V252.862L440.577 231.606C440.577 231.606 437.193 202.409 433.086 200.318L426.715 229.229L431.397 297.029L441.727 305.309Z" fill="#EBEBEB"/>
<path d="M415.781 184.369L416.26 181.403C417.366 182.264 420.3 186.85 420.3 186.85C424.334 190.25 432.747 198.854 434.273 202.21C436.448 206.987 436.662 228.912 436.662 228.912L435.585 337.354L362.928 337.465L364.101 288.337L366.409 191.413L384.245 182.456L389.023 177.208L419.062 226.086L418.848 193.172C418.84 189.978 417.757 186.879 415.781 184.369Z" fill="#EBEBEB"/>
<path d="M339.164 273.293C337.255 269.62 336.915 265.337 338.102 261.37C342.187 247.739 354.899 205.551 357.214 200.304C359.751 194.548 367.006 191.111 367.006 191.111L378.162 220.36L375.323 233.998L365.104 263.121L395.01 298.045L373.635 315.598C373.635 315.598 341.406 277.54 339.231 273.418C339.209 273.381 339.186 273.337 339.164 273.293Z" fill="#EBEBEB"/>
<path d="M417.653 301.268C417.432 301.18 409.845 302.556 408.4 302.174C406.962 301.798 403.777 300.959 400.282 300.657C396.794 300.356 392.967 299.715 392.967 299.715L378.213 311.83L384.282 313.979C384.282 313.979 388.153 314.582 393.609 312.919C399.073 311.256 407.943 306.715 407.943 306.715C407.943 306.715 411.43 306.869 414.011 306.413C416.592 305.964 420.839 302.483 417.653 301.268Z" fill="#FFBE9D"/>
<path d="M420.286 337.465C420.278 337.465 420.271 337.362 420.271 337.17C420.271 336.957 420.264 336.67 420.264 336.302C420.264 335.514 420.264 334.388 420.264 332.953C420.278 330.024 420.308 325.821 420.337 320.64C420.411 310.247 420.588 295.888 420.559 280.027C420.544 272.093 420.47 264.542 420.337 257.668C420.256 254.23 420.183 250.97 420.116 247.916C419.976 244.869 419.851 242.02 419.733 239.422C419.512 234.248 419.327 230.053 419.202 227.124C419.15 225.688 419.106 224.562 419.077 223.782C419.069 223.414 419.062 223.127 419.054 222.914C419.054 222.715 419.054 222.619 419.062 222.619C419.069 222.619 419.077 222.722 419.099 222.914C419.113 223.127 419.136 223.414 419.158 223.782C419.202 224.57 419.268 225.688 419.357 227.124C419.512 230.046 419.733 234.241 420.013 239.415C420.146 242.013 420.293 244.854 420.448 247.908C420.529 250.963 420.618 254.23 420.706 257.668C420.854 264.542 420.942 272.101 420.957 280.035C420.986 295.895 420.765 310.255 420.625 320.647C420.544 325.829 420.477 330.031 420.426 332.953C420.396 334.388 420.374 335.514 420.359 336.302C420.345 336.67 420.337 336.957 420.33 337.17C420.301 337.362 420.293 337.465 420.286 337.465Z" fill="#263238"/>
<path d="M384.252 182.456C384.26 182.448 384.348 182.559 384.503 182.78C384.673 183.03 384.894 183.354 385.174 183.758C385.771 184.649 386.604 185.908 387.644 187.475C389.753 190.699 392.702 195.211 396.153 200.473L396.042 200.399C398.055 200.9 400.201 201.437 402.413 201.989L402.641 202.048L402.531 202.262C401.816 203.653 401.071 205.11 400.311 206.589C400.193 206.817 400.075 207.046 399.972 207.252L399.95 207.046C405.414 214.118 410.332 220.5 413.915 225.136C415.67 227.433 417.086 229.302 418.096 230.627C418.568 231.26 418.944 231.76 419.217 232.128C419.327 232.29 419.423 232.415 419.497 232.526C419.556 232.614 419.585 232.666 419.585 232.666C419.578 232.673 419.541 232.629 419.467 232.548C419.379 232.445 419.283 232.327 419.158 232.173C418.87 231.812 418.479 231.326 417.978 230.715C416.946 229.413 415.493 227.573 413.701 225.298C410.096 220.676 405.141 214.325 399.648 207.274L399.574 207.178L399.633 207.068C399.744 206.854 399.854 206.633 399.972 206.405C400.732 204.926 401.484 203.469 402.199 202.078L402.324 202.35C400.112 201.79 397.974 201.253 395.961 200.745L395.895 200.731L395.858 200.672C392.459 195.373 389.546 190.839 387.467 187.6C386.464 186.011 385.653 184.737 385.085 183.825C384.827 183.405 384.621 183.067 384.466 182.809C384.311 182.581 384.245 182.456 384.252 182.456Z" fill="#263238"/>
<path d="M419.593 232.673C419.578 232.666 419.637 232.496 419.755 232.187C419.865 231.871 420.072 231.414 420.278 230.811C420.713 229.604 421.274 227.837 421.886 225.629C423.088 221.199 424.452 214.972 425.653 207.995L425.683 208.127C425.506 207.84 425.314 207.531 425.123 207.222C424.083 205.537 423.08 203.895 422.107 202.32L421.871 201.938L422.313 202.041C423.545 202.335 424.739 202.622 425.889 202.902L425.676 203.137C424.09 198.412 422.726 194.364 421.753 191.45C421.296 190.037 420.927 188.903 420.662 188.086C420.551 187.718 420.455 187.424 420.389 187.188C420.33 186.982 420.308 186.872 420.315 186.872C420.323 186.872 420.367 186.967 420.448 187.173C420.536 187.402 420.64 187.696 420.78 188.057C421.067 188.874 421.473 189.992 421.974 191.391C422.984 194.291 424.393 198.324 426.029 203.034L426.14 203.343L425.823 203.27C424.673 202.997 423.478 202.718 422.247 202.431L422.453 202.151C423.427 203.726 424.437 205.36 425.476 207.045C425.668 207.355 425.86 207.664 426.037 207.951L426.074 208.01L426.059 208.083C424.85 215.075 423.441 221.302 422.166 225.725C421.524 227.933 420.92 229.7 420.441 230.892C420.212 231.495 419.983 231.937 419.851 232.246C419.681 232.518 419.6 232.673 419.593 232.673Z" fill="#263238"/>
<path d="M440.437 291.789C440.437 291.789 434.944 292.164 433.204 292.951C431.456 293.746 430.247 296.433 428.868 297.544C427.489 298.655 425.425 299.2 425.904 300.591C426.383 301.982 428.286 302.932 430.026 302.299C431.773 301.666 433.831 300.591 433.831 300.591H442.553C442.553 300.591 444.301 293.702 444.455 293.805C444.625 293.901 442.015 291.781 440.437 291.789Z" fill="#FFBE9D"/>
<path d="M436.278 217.924C436.382 217.924 436.47 234.542 436.47 255.04C436.47 275.545 436.382 292.164 436.278 292.164C436.175 292.164 436.087 275.545 436.087 255.04C436.087 234.542 436.168 217.924 436.278 217.924Z" fill="#263238"/>
<path d="M355.629 294.107C355.629 294.107 355.754 294.232 355.975 294.482C356.204 294.747 356.528 295.123 356.941 295.601C357.797 296.602 359.028 298.052 360.599 299.899C363.754 303.646 368.274 309.004 373.753 315.502L373.531 315.48C379.681 310.424 386.973 304.411 394.885 297.905L394.862 298.177C392.65 295.594 390.335 292.893 387.976 290.14C379.496 280.219 371.592 270.974 364.978 263.239L364.919 263.166L364.949 263.077C368.053 254.326 370.626 247.062 372.433 241.961C373.34 239.437 374.055 237.45 374.549 236.073C374.792 235.411 374.984 234.896 375.117 234.528C375.249 234.182 375.33 234.005 375.33 234.005C375.33 234.005 375.286 234.189 375.168 234.542C375.043 234.91 374.873 235.433 374.645 236.103C374.173 237.486 373.487 239.481 372.617 242.02C370.84 247.128 368.311 254.414 365.258 263.18L365.229 263.018C371.858 270.746 379.777 279.976 388.271 289.882C390.63 292.635 392.938 295.336 395.15 297.919L395.275 298.067L395.128 298.192C387.202 304.683 379.895 310.674 373.73 315.716L373.612 315.812L373.517 315.694C368.075 309.158 363.592 303.771 360.466 300.002C358.925 298.133 357.708 296.661 356.875 295.645C356.477 295.152 356.167 294.769 355.946 294.497C355.725 294.247 355.629 294.107 355.629 294.107Z" fill="#263238"/>
<path d="M361.948 195.115C361.948 195.1 362.058 195.093 362.257 195.086C362.464 195.086 362.766 195.063 363.157 195.086C363.939 195.108 365.067 195.218 366.431 195.52C369.144 196.101 372.853 197.654 375.92 200.672C378.98 203.697 380.588 207.377 381.2 210.078C381.517 211.439 381.642 212.558 381.679 213.338C381.708 213.728 381.694 214.03 381.694 214.236C381.686 214.442 381.679 214.545 381.664 214.545C381.635 214.545 381.605 214.118 381.531 213.353C381.458 212.588 381.288 211.476 380.941 210.144C380.263 207.494 378.656 203.903 375.655 200.944C372.654 197.985 369.034 196.425 366.372 195.777C365.037 195.446 363.924 195.292 363.15 195.225C362.375 195.166 361.948 195.152 361.948 195.115Z" fill="#263238"/>
<path d="M353.587 265.307C353.565 265.27 354.081 264.836 355.039 264.314C355.998 263.791 357.421 263.224 359.072 262.952C360.724 262.68 362.258 262.761 363.327 262.952C364.403 263.136 365.037 263.394 365.023 263.43C365.008 263.563 362.376 262.775 359.131 263.335C355.88 263.835 353.646 265.425 353.587 265.307Z" fill="#263238"/>
<path d="M435.954 300.591H443.305L434.125 328.095L431.397 308.901L435.954 300.591Z" fill="#EBEBEB"/>
<path d="M433.838 300.591C433.838 300.576 434.074 300.554 434.516 300.54C435.01 300.525 435.652 300.51 436.441 300.495C438.151 300.481 440.503 300.451 443.305 300.429H443.534L443.46 300.65C442.568 303.351 441.514 306.531 440.393 309.924C438.712 314.958 437.171 319.514 436.035 322.804C435.475 324.408 435.01 325.718 434.671 326.69C434.516 327.109 434.383 327.462 434.28 327.742C434.184 327.978 434.133 328.103 434.118 328.103C434.103 328.095 434.133 327.97 434.207 327.72C434.295 327.433 434.398 327.08 434.524 326.646C434.833 325.667 435.254 324.334 435.77 322.715C436.839 319.403 438.343 314.84 440.024 309.806C441.167 306.413 442.236 303.241 443.143 300.547L443.298 300.76C440.496 300.731 438.144 300.709 436.433 300.694C435.644 300.672 435.003 300.657 434.509 300.65C434.074 300.628 433.838 300.606 433.838 300.591Z" fill="#263238"/>
<path d="M436.278 292.164C436.271 292.142 436.573 292.031 437.141 291.899C437.709 291.766 438.535 291.612 439.582 291.605C440.614 291.605 441.912 291.752 443.143 292.458C444.382 293.15 445.355 294.468 445.915 295.962C447.058 299.009 446.188 302.218 444.655 303.682C443.895 304.426 443.121 304.808 442.59 305.037C442.052 305.257 441.742 305.331 441.735 305.309C441.727 305.279 442.022 305.162 442.531 304.897C443.032 304.632 443.762 304.22 444.463 303.491C445.864 302.063 446.653 298.994 445.561 296.087C445.023 294.652 444.116 293.415 442.973 292.753C441.831 292.076 440.592 291.899 439.589 291.87C437.532 291.855 436.293 292.245 436.278 292.164Z" fill="#263238"/>
<path d="M380.75 313.177C380.772 313.096 382.239 313.898 384.835 314.03C386.125 314.097 387.666 313.979 389.34 313.611C391.014 313.25 392.805 312.647 394.663 311.962C398.394 310.579 401.779 309.35 404.234 308.474C405.414 308.062 406.394 307.723 407.146 307.458C407.84 307.222 408.223 307.112 408.23 307.134C408.238 307.156 407.869 307.326 407.198 307.598C406.453 307.892 405.487 308.268 404.322 308.731C401.889 309.673 398.52 310.947 394.789 312.323C392.923 313.007 391.109 313.611 389.406 313.957C387.703 314.31 386.125 314.406 384.813 314.303C383.5 314.207 382.461 313.92 381.775 313.67C381.428 313.545 381.17 313.427 381.001 313.339C380.831 313.243 380.743 313.191 380.75 313.177Z" fill="#263238"/>
<path d="M382.335 337.185C382.232 337.192 381.701 332.651 381.155 327.036C380.61 321.42 380.248 316.857 380.352 316.849C380.455 316.842 380.986 321.383 381.531 326.999C382.084 332.614 382.446 337.17 382.335 337.185Z" fill="#263238"/>
<path d="M402.015 336.265C402.007 336.228 402.398 336.11 403.076 335.823C403.755 335.544 404.698 335.021 405.672 334.138C406.623 333.247 407.589 331.989 408.311 330.414C409.056 328.846 409.594 326.999 409.956 325.019C410.656 321.052 410.612 317.372 410.509 314.73C410.457 313.405 410.376 312.338 410.324 311.602C410.273 310.866 410.243 310.453 410.273 310.446C410.295 310.446 410.376 310.844 410.472 311.58C410.575 312.316 410.686 313.383 410.781 314.708C410.951 317.35 411.039 321.059 410.332 325.078C409.97 327.08 409.41 328.964 408.628 330.554C407.869 332.158 406.851 333.439 405.849 334.329C404.824 335.213 403.836 335.706 403.128 335.949C402.781 336.096 402.494 336.14 402.302 336.199C402.118 336.258 402.015 336.272 402.015 336.265Z" fill="#263238"/>
<path d="M380.824 314.899C380.875 314.855 381.465 315.606 382.549 316.687C383.626 317.769 385.24 319.153 387.231 320.375C389.229 321.589 391.198 322.384 392.658 322.84C394.118 323.304 395.054 323.488 395.047 323.554C395.039 323.584 394.804 323.554 394.376 323.495C393.948 323.437 393.329 323.304 392.584 323.105C391.087 322.708 389.067 321.935 387.032 320.706C385.004 319.47 383.397 318.027 382.357 316.879C381.834 316.305 381.436 315.819 381.192 315.466C380.934 315.112 380.802 314.914 380.824 314.899Z" fill="#263238"/>
<path d="M406.711 233.085C406.711 233.085 407.64 233.799 407.567 234.94C407.493 236.081 407.567 243.853 407.567 243.853C407.567 243.853 407.854 244.994 406.711 244.994V235.72V233.085Z" fill="#263238"/>
<path d="M406.94 231.819H404.551V235.72H406.94V231.819Z" fill="#263238"/>
<path d="M405.03 232.268H406.49V230.767C406.49 230.362 406.166 230.038 405.76 230.038C405.355 230.038 405.03 230.362 405.03 230.767V232.268Z" fill="#263238"/>
<path d="M386.531 235.485C386.531 235.382 391.891 235.293 398.497 235.293C405.111 235.293 410.472 235.382 410.472 235.485C410.472 235.588 405.111 235.676 398.497 235.676C391.891 235.676 386.531 235.588 386.531 235.485Z" fill="#263238"/>
<g opacity="0.2">
<path d="M417.55 230.031L416.444 228.986L396.3 209.761L398.505 203.461H395.01L388.005 188.241L395.998 200.576L402.368 202.173L399.802 207.163" fill="black"/>
</g>
<g opacity="0.2">
<path d="M400.754 255.938C402.737 255.783 404.75 255.342 406.394 254.216C408.031 253.09 409.159 250.86 409.587 249.491C409.395 251.073 409.196 253.031 408.65 254.532C408.112 256.034 407.191 257.454 405.826 258.293C404.263 259.265 402.309 259.375 400.473 259.221C398.011 259.022 395.585 258.418 393.321 257.432C391.707 256.733 390.018 255.629 389.686 253.907C393.115 255.518 396.971 256.225 400.754 255.938Z" fill="black"/>
</g>
<path d="M167.036 118.968C166.078 117.055 163.799 115.899 161.69 116.26C159.25 114.273 155.386 114.287 152.96 116.297C151.11 115.163 148.662 115.082 146.745 116.091C144.82 117.092 143.493 119.145 143.375 121.309C141.215 120.934 138.87 122.074 137.83 124.003C136.791 125.931 137.137 128.514 138.641 130.104C136.267 130.833 134.682 133.504 135.168 135.933C135.655 138.362 138.162 140.209 140.632 139.966L166.011 124.871C167.56 123.392 167.995 120.875 167.036 118.968Z" fill="#E0E0E0"/>
<path d="M139.88 140.658C140.942 129.53 150.387 121.081 161.587 121.243L162.7 121.257C174.69 122.133 180.64 132.783 179.438 144.721L177.123 184.583L176.99 186.518L149.222 191.656L149.406 181.492C149.406 181.492 137.897 179.534 137.926 168.023C137.933 162.459 138.892 151.014 139.88 140.658Z" fill="#FFBE9D"/>
<path d="M149.311 181.477C149.311 181.477 156.669 182.029 164.485 177.282C164.485 177.282 160.813 185.518 149.318 184.31L149.311 181.477Z" fill="#EB996E"/>
<path d="M144.415 151.316C144.37 152.184 145.071 152.935 145.978 152.994C146.885 153.053 147.651 152.405 147.696 151.536C147.74 150.668 147.039 149.917 146.133 149.851C145.226 149.799 144.459 150.455 144.415 151.316Z" fill="#263238"/>
<path d="M142.276 146.326C142.475 146.546 143.736 145.641 145.513 145.67C147.283 145.678 148.573 146.605 148.765 146.392C148.861 146.296 148.662 145.906 148.101 145.486C147.548 145.067 146.604 144.655 145.498 144.647C144.392 144.64 143.463 145.03 142.918 145.435C142.372 145.847 142.18 146.23 142.276 146.326Z" fill="#263238"/>
<path d="M160.894 151.742C160.85 152.611 161.55 153.362 162.457 153.421C163.364 153.479 164.131 152.832 164.175 151.963C164.219 151.095 163.519 150.344 162.612 150.278C161.713 150.226 160.938 150.881 160.894 151.742Z" fill="#263238"/>
<path d="M159.692 146.907C159.891 147.128 161.159 146.222 162.929 146.252C164.699 146.259 165.989 147.187 166.181 146.973C166.277 146.878 166.077 146.487 165.517 146.068C164.964 145.648 164.02 145.236 162.914 145.229C161.808 145.222 160.879 145.612 160.334 146.016C159.788 146.429 159.596 146.811 159.692 146.907Z" fill="#263238"/>
<path d="M153.071 159.934C153.078 159.831 151.98 159.625 150.203 159.375C149.753 159.323 149.325 159.228 149.252 158.918C149.148 158.587 149.347 158.109 149.576 157.586C150.018 156.497 150.483 155.364 150.962 154.164C152.894 149.292 154.295 145.288 154.096 145.207C153.897 145.133 152.171 149.019 150.247 153.884C149.782 155.084 149.34 156.232 148.912 157.329C148.735 157.837 148.433 158.418 148.654 159.095C148.772 159.434 149.097 159.684 149.392 159.765C149.679 159.861 149.937 159.868 150.158 159.883C151.95 160.015 153.064 160.037 153.071 159.934Z" fill="#263238"/>
<path d="M158.269 161.237C157.982 161.215 157.952 163.136 156.286 164.475C154.619 165.822 152.577 165.572 152.555 165.844C152.525 165.962 153.005 166.227 153.875 166.256C154.723 166.301 155.969 166.043 156.986 165.226C158.004 164.402 158.453 163.298 158.527 162.51C158.608 161.708 158.402 161.23 158.269 161.237Z" fill="#263238"/>
<path d="M159.338 139.974C159.508 140.46 161.277 140.254 163.357 140.533C165.436 140.769 167.11 141.402 167.39 140.975C167.515 140.769 167.228 140.312 166.557 139.841C165.893 139.37 164.824 138.907 163.578 138.752C162.332 138.598 161.189 138.782 160.422 139.076C159.655 139.37 159.264 139.738 159.338 139.974Z" fill="#E0E0E0"/>
<path d="M143.006 141.218C143.309 141.622 144.54 141.225 146.007 141.225C147.474 141.174 148.713 141.534 149.008 141.122C149.133 140.923 148.949 140.511 148.411 140.128C147.88 139.738 146.988 139.422 145.978 139.437C144.968 139.451 144.09 139.805 143.574 140.209C143.043 140.607 142.866 141.019 143.006 141.218Z" fill="#E0E0E0"/>
<path d="M141.067 135.396C141.067 135.396 144.216 128.227 147.718 126.601C151.965 124.628 153.712 129.272 157.746 128.205C161.779 127.145 165.834 125.247 169.897 128.404C174.343 131.863 172.205 134.211 172.404 139.326C173.23 160.052 176.931 165.962 178.148 156.225C178.28 155.158 181.267 154.348 181.768 149.844C182.424 144 182.756 136.89 181.503 132.717C180.448 129.199 178.487 126.748 174.94 124.032C169.337 119.741 161.565 119.535 156.271 119.991C150.992 120.44 140.721 126.365 141.067 135.396Z" fill="#E0E0E0"/>
<path d="M177.425 155.901C177.521 154.127 179.077 152.743 180.846 152.942C182.992 153.178 185.373 154.429 185.16 158.867C184.791 166.735 176.953 164.74 176.953 164.519C176.953 164.358 177.241 159.191 177.425 155.901Z" fill="#FFBE9D"/>
<path d="M178.811 161.634C178.848 161.612 178.944 161.737 179.172 161.855C179.394 161.966 179.777 162.061 180.197 161.921C181.045 161.656 181.805 160.368 181.908 158.955C181.96 158.241 181.842 157.55 181.613 156.975C181.399 156.387 181.045 155.967 180.632 155.879C180.219 155.761 179.91 155.997 179.807 156.217C179.689 156.431 179.733 156.593 179.689 156.6C179.666 156.622 179.526 156.46 179.607 156.136C179.644 155.982 179.748 155.798 179.939 155.658C180.138 155.511 180.419 155.445 180.706 155.496C181.311 155.57 181.834 156.151 182.085 156.784C182.365 157.424 182.52 158.197 182.461 158.999C182.336 160.582 181.458 162.032 180.301 162.304C179.74 162.422 179.283 162.238 179.054 162.039C178.811 161.826 178.782 161.649 178.811 161.634Z" fill="#EB996E"/>
<path d="M177.491 140.651C176.459 141.335 175.368 142.035 174.129 142.145C172.89 142.248 171.489 141.519 171.305 140.298C171.217 139.746 171.364 139.113 171.01 138.686C170.59 138.178 169.794 138.318 169.13 138.384C166.837 138.59 164.507 136.942 163.961 134.704C163.364 135.573 162 135.514 161.123 134.932C160.245 134.351 159.692 133.409 159.006 132.607C158.328 131.804 157.362 131.083 156.323 131.215C155.74 131.289 155.187 131.628 154.605 131.569C153.572 131.458 153.086 130.244 152.938 129.214C152.798 128.183 152.695 126.983 151.825 126.417C151.021 125.887 149.959 126.174 149.008 126.299C148.05 126.424 146.826 126.181 146.597 125.254C146.479 124.761 146.693 124.253 146.973 123.833C148.227 121.92 150.918 121.103 153.027 121.993C153.838 119.403 156.3 117.415 159.006 117.173C161.712 116.93 164.5 118.439 165.76 120.838C167.449 119.351 169.882 118.755 172.065 119.285C174.254 119.815 176.135 121.463 176.953 123.554C178.878 123.075 181.053 123.848 182.247 125.431C183.442 127.013 183.582 129.317 182.586 131.024C183.995 131.856 185.182 133.276 185.189 134.903C185.196 136.529 183.582 138.134 182.011 137.678C182.631 138.958 182.085 140.666 180.846 141.358C179.608 142.049 177.86 141.608 177.093 140.408" fill="#E0E0E0"/>
<path d="M182.579 137.678C182.608 137.655 182.712 138.34 182.063 139.186C181.738 139.584 181.2 139.996 180.47 140.106C179.755 140.217 178.892 140.025 178.229 139.422L178.56 139.378C178.162 140.047 177.639 140.732 176.96 141.321C176.525 141.696 176.039 142.013 175.508 142.189C174.984 142.388 174.402 142.395 173.915 142.314C172.92 142.189 172.057 141.645 171.659 140.975C171.246 140.327 171.121 139.724 171.047 139.326C170.973 138.921 170.966 138.693 170.995 138.686C171.032 138.679 171.091 138.899 171.217 139.282C171.342 139.657 171.519 140.224 171.924 140.791C172.654 141.932 175.08 142.543 176.658 140.967C177.285 140.423 177.794 139.783 178.184 139.15L178.324 138.921L178.516 139.105C179.047 139.621 179.792 139.805 180.411 139.738C181.038 139.672 181.532 139.348 181.849 139.01C182.505 138.296 182.513 137.655 182.579 137.678Z" fill="white"/>
<path d="M167.943 119.484C167.95 119.513 167.736 119.535 167.382 119.682C167.036 119.83 166.527 120.117 166.144 120.705L166.048 120.853L165.945 120.705C165.222 119.704 164.006 118.424 162.177 117.57C161.27 117.151 160.208 116.856 159.08 116.841C157.959 116.819 156.78 117.128 155.725 117.747C154.907 118.225 154.221 118.873 153.712 119.601C153.211 120.337 152.901 121.154 152.813 121.964L152.783 122.214L152.547 122.148C151.368 121.802 150.158 122.015 149.266 122.501C148.359 122.98 147.777 123.723 147.445 124.393C146.789 125.769 147.003 126.726 146.921 126.719C146.907 126.719 146.84 126.498 146.833 126.071C146.833 125.651 146.892 125.011 147.216 124.282C147.533 123.561 148.131 122.737 149.097 122.192C150.048 121.647 151.353 121.39 152.665 121.751L152.4 121.927C152.488 121.044 152.82 120.153 153.351 119.359C153.897 118.571 154.634 117.879 155.504 117.364C156.625 116.702 157.893 116.378 159.095 116.415C160.297 116.437 161.41 116.768 162.354 117.217C164.249 118.144 165.465 119.513 166.151 120.573H165.945C166.394 119.947 166.97 119.682 167.346 119.565C167.722 119.447 167.943 119.469 167.943 119.484Z" fill="white"/>
<path d="M160.96 162.422C160.835 162.422 160.798 161.59 160.134 160.898C159.5 160.177 158.675 160.074 158.682 159.942C158.682 159.883 158.903 159.824 159.264 159.89C159.618 159.956 160.09 160.177 160.474 160.589C160.85 161.001 161.034 161.495 161.064 161.848C161.1 162.208 161.019 162.429 160.96 162.422Z" fill="#EB996E"/>
<path d="M161.698 160.258C161.587 160.324 161.307 160.045 160.887 159.853C160.474 159.647 160.083 159.603 160.061 159.478C160.031 159.36 160.533 159.183 161.078 159.448C161.631 159.706 161.808 160.207 161.698 160.258Z" fill="#EB996E"/>
<path d="M170.841 178.805C170.833 178.768 170.959 178.746 171.055 178.599C171.15 178.459 171.231 178.187 171.084 177.907C170.959 177.606 170.605 177.341 170.369 176.825C170.251 176.582 170.221 176.2 170.391 175.905C170.546 175.626 170.774 175.434 170.907 175.243C171.519 174.463 169.742 173.911 169.978 172.91C170.022 172.49 170.243 172.211 170.413 172.078C170.597 171.946 170.723 171.931 170.73 171.953C170.782 172.005 170.302 172.255 170.295 172.925C170.288 173.256 170.487 173.543 170.87 173.859C171.047 174.021 171.268 174.227 171.394 174.522C171.549 174.809 171.482 175.265 171.276 175.508C171.084 175.766 170.878 175.942 170.782 176.126C170.678 176.295 170.686 176.479 170.76 176.678C170.9 177.068 171.254 177.392 171.386 177.797C171.541 178.209 171.372 178.592 171.187 178.732C170.988 178.886 170.833 178.827 170.841 178.805Z" fill="#EB996E"/>
<path d="M173.289 178.467C173.252 178.459 173.252 178.349 173.185 178.18C173.127 178.01 172.979 177.79 172.758 177.517C172.655 177.377 172.529 177.215 172.426 177.009C172.323 176.811 172.249 176.524 172.323 176.237C172.463 175.67 172.927 175.324 173.149 174.912C173.399 174.514 173.186 174.168 172.846 173.822C172.691 173.646 172.529 173.462 172.426 173.241C172.323 173.02 172.301 172.792 172.308 172.601C172.382 171.784 172.935 171.548 172.935 171.6C172.994 171.644 172.603 171.953 172.625 172.601C172.64 172.925 172.802 173.219 173.149 173.535C173.311 173.705 173.51 173.889 173.635 174.183C173.768 174.478 173.702 174.868 173.547 175.125C173.237 175.648 172.817 175.957 172.728 176.325C172.618 176.671 172.854 177.024 173.031 177.326C173.215 177.62 173.355 177.915 173.37 178.135C173.377 178.364 173.311 178.474 173.289 178.467Z" fill="#EB996E"/>
<path d="M89.6161 213.309C89.6161 213.309 91.3857 220.419 92.5507 222.369C93.7231 224.312 93.8779 225.946 93.8779 225.946L94.6079 237.332L85.2732 246.532L67.1791 233.048C67.1791 233.048 60.6905 226.719 62.4454 224.319C62.4454 224.319 63.3081 223.149 64.8196 224.342C64.8196 224.342 58.0509 219.109 59.6214 217.055C61.1846 215.002 63.5145 217.975 65.9699 220.051C68.4178 222.126 69.2215 222.708 69.2215 222.708L62.1873 215.914C62.1873 215.914 60.2039 214.17 61.9588 212.742C63.721 211.314 66.3238 214.884 67.5551 215.635C68.7865 216.378 75.7174 222.965 75.7174 222.965C75.7174 222.965 70.9174 216.864 70.5782 216.525C70.239 216.194 65.8961 212.941 67.5109 211.064C69.1256 209.187 73.2842 213.751 74.6556 214.788C76.0271 215.833 81.181 221.979 82.3313 222.597C83.4815 223.223 85.5608 225.019 86.8438 224.452C88.1267 223.878 85.5018 219.109 85.9147 217.401C86.3203 215.686 87.0355 212.426 89.6161 213.309Z" fill="#FFBE9D"/>
<path d="M85.1921 235.308C85.2585 235.256 84.7792 234.712 84.5359 233.623C84.2705 232.548 84.381 230.973 85.0373 229.391C85.664 227.786 86.5193 226.469 86.9838 225.394C87.2124 224.857 87.3156 224.378 87.3083 224.04C87.3009 223.701 87.2272 223.532 87.1977 223.539C87.1313 223.547 87.2198 224.261 86.6742 225.247C86.158 226.233 85.2364 227.551 84.5875 229.207C83.9018 230.848 83.8354 232.577 84.2041 233.696C84.558 234.859 85.1626 235.352 85.1921 235.308Z" fill="#EB996E"/>
<path d="M72.5836 231.606C72.6352 231.591 72.3551 230.943 71.4703 230.355C70.6371 229.736 69.214 229.31 68.2186 228.242C67.732 227.69 67.4002 227.043 67.061 226.454C66.7292 225.865 66.3679 225.343 65.9919 224.975C65.2324 224.209 64.4951 224.15 64.5025 224.209C64.473 224.283 65.1071 224.445 65.7412 225.203C66.0582 225.578 66.3679 226.071 66.6702 226.667C66.9873 227.249 67.3117 227.941 67.8573 228.559C68.4103 229.177 69.1034 229.56 69.7006 229.854C70.3126 230.156 70.8583 230.391 71.2859 230.642C72.1633 231.12 72.5173 231.65 72.5836 231.606Z" fill="#EB996E"/>
<path d="M124.212 337.148H182.122V316.224L124.212 309.747V337.148Z" fill="#263238"/>
<path d="M149.333 185.606L153.513 188.233L177.58 177.907L178.679 183.221L156.898 228.309L155.593 314.288L132.028 312.36L146.597 196.234L149.333 185.606Z" fill="#5D89AB"/>
<path d="M171.858 187.887C171.873 187.91 171.571 188.094 171.018 188.403C170.398 188.749 169.609 189.183 168.666 189.713C166.682 190.817 163.947 192.355 160.946 194.085C159.611 194.857 158.336 195.601 157.163 196.285L157.001 196.381L156.913 196.226C155.74 194.114 155.047 192.186 154.443 190.883C154.155 190.221 153.912 189.705 153.742 189.352C153.572 188.999 153.477 188.807 153.499 188.8C153.514 188.793 153.639 188.962 153.845 189.301C154.052 189.639 154.325 190.14 154.649 190.795C155.313 192.083 156.05 193.996 157.23 196.057L156.979 195.991C158.137 195.292 159.412 194.541 160.754 193.768C163.755 192.038 166.513 190.537 168.533 189.492C169.543 188.969 170.369 188.565 170.944 188.292C171.519 187.998 171.844 187.865 171.858 187.887Z" fill="#263238"/>
<path d="M144.4 192.097C140.426 193.614 135.021 195.682 132.101 196.793C130.531 197.389 129.145 198.368 128.046 199.627C125.362 202.703 120.606 209.349 117.76 220.242C113.897 234.999 109.782 246.09 109.782 246.09L96.0383 235.926L76.9487 254.738C76.9487 254.738 109.082 282.662 119.286 282.537L112.37 337.214H132.094L148.404 192.097L149.333 185.606C148.994 185.738 145.314 190.839 144.4 192.097Z" fill="#EBEBEB"/>
<path d="M126.21 210.38C126.217 210.38 126.217 210.446 126.203 210.578C126.188 210.733 126.173 210.924 126.144 211.167C126.085 211.712 125.996 212.462 125.893 213.419C125.664 215.399 125.34 218.218 124.949 221.692C124.16 228.677 123.135 238.333 122.125 249.005C121.115 259.684 120.289 269.363 119.677 276.362C119.375 279.843 119.124 282.67 118.947 284.657C118.859 285.614 118.785 286.364 118.733 286.909C118.704 287.144 118.682 287.343 118.667 287.498C118.652 287.63 118.638 287.696 118.63 287.696C118.623 287.696 118.623 287.63 118.623 287.498C118.63 287.343 118.638 287.152 118.652 286.909C118.689 286.364 118.733 285.606 118.792 284.649C118.94 282.662 119.146 279.829 119.397 276.347C119.935 269.341 120.724 259.655 121.727 248.975C122.737 238.296 123.806 228.64 124.662 221.662C125.089 218.174 125.458 215.355 125.731 213.405C125.863 212.455 125.974 211.704 126.055 211.167C126.092 210.932 126.121 210.74 126.151 210.586C126.188 210.446 126.203 210.38 126.21 210.38Z" fill="#263238"/>
<path d="M185.123 265.248C185.042 265.337 183.508 263.725 181.09 262.547C178.686 261.348 176.467 261.112 176.489 260.987C176.496 260.943 177.049 260.935 177.934 261.097C178.819 261.252 180.021 261.598 181.259 262.201C182.491 262.812 183.501 263.556 184.157 264.159C184.821 264.77 185.152 265.219 185.123 265.248Z" fill="#263238"/>
<path d="M202.554 201.43C202.554 201.43 197.658 197.625 192.725 193.658C187.792 189.691 179.586 183.795 179.586 183.795L178.104 178.842C178.104 178.842 173.761 183.405 169.949 191.663C164.478 203.527 158.166 220.838 156.89 228.316L149.325 337.156H205.746L192.622 259.787L202.554 201.43Z" fill="#EBEBEB"/>
<path d="M156.551 235.278C156.537 235.271 156.632 235.087 156.809 234.749C157.008 234.373 157.281 233.88 157.613 233.254C158.35 231.93 159.375 230.075 160.643 227.801C163.246 223.186 166.815 216.864 170.76 209.879C170.937 209.563 171.121 209.246 171.298 208.937L171.283 209.084C170.856 207.649 170.443 206.243 170.044 204.882L170.008 204.749L170.118 204.668C171.158 203.932 172.168 203.218 173.141 202.534L173.075 202.622C174.94 197.154 176.548 192.451 177.705 189.065C178.281 187.424 178.738 186.106 179.069 185.164C179.224 184.737 179.35 184.391 179.445 184.126C179.534 183.891 179.586 183.773 179.593 183.773C179.6 183.773 179.571 183.906 179.504 184.141C179.423 184.414 179.313 184.759 179.18 185.194C178.87 186.143 178.443 187.475 177.912 189.124C176.791 192.517 175.228 197.235 173.414 202.718L173.399 202.777L173.348 202.814C172.374 203.505 171.364 204.219 170.332 204.955L170.406 204.749C170.811 206.111 171.224 207.517 171.652 208.952L171.674 209.033L171.637 209.106C171.46 209.415 171.283 209.732 171.099 210.048C167.117 217.011 163.519 223.311 160.887 227.918C159.582 230.171 158.513 232.003 157.753 233.313C157.392 233.924 157.104 234.41 156.883 234.771C156.677 235.117 156.559 235.286 156.551 235.278Z" fill="#263238"/>
<path d="M143.257 237.906C143.242 237.906 143.205 237.737 143.146 237.413C143.08 237.052 142.999 236.574 142.896 235.992C142.689 234.712 142.402 232.931 142.048 230.752C141.362 226.285 140.433 220.183 139.401 213.441C139.298 212.742 139.194 212.05 139.091 211.366L139.084 211.3L139.113 211.241C139.998 209.636 140.861 208.083 141.679 206.604L141.782 206.869C140.905 206.582 140.05 206.302 139.224 206.03L139.047 205.971L139.113 205.802C140.64 201.776 141.937 198.361 142.866 195.895C143.323 194.718 143.692 193.775 143.965 193.084C144.09 192.782 144.186 192.539 144.267 192.34C144.341 192.171 144.378 192.09 144.393 192.09C144.4 192.09 144.378 192.186 144.326 192.355C144.26 192.561 144.171 192.811 144.075 193.113C143.825 193.812 143.493 194.769 143.073 195.961C142.173 198.434 140.92 201.871 139.445 205.912L139.334 205.684C140.16 205.949 141.016 206.229 141.893 206.508L142.107 206.574L142.004 206.766C141.193 208.253 140.337 209.806 139.452 211.41L139.475 211.292C139.578 211.977 139.681 212.669 139.784 213.368C140.772 220.117 141.664 226.218 142.313 230.693C142.616 232.879 142.859 234.668 143.036 235.948C143.11 236.537 143.169 237.015 143.213 237.383C143.257 237.737 143.272 237.906 143.257 237.906Z" fill="#263238"/>
<path d="M148.352 192.554C148.418 192.524 148.949 193.569 149.665 195.122L149.355 195.108C149.679 194.482 150.1 193.798 150.557 193.084C151.346 191.869 152.083 190.802 152.614 190.014C153.145 189.234 153.454 188.741 153.506 188.771C153.55 188.793 153.322 189.337 152.842 190.162C152.371 190.986 151.663 192.083 150.881 193.29C150.424 193.996 149.996 194.673 149.657 195.27L149.48 195.579L149.347 195.255C148.691 193.68 148.286 192.583 148.352 192.554Z" fill="#263238"/>
<path d="M141.841 313.162C141.834 313.162 141.841 313.052 141.849 312.838C141.864 312.61 141.886 312.294 141.915 311.896C141.989 311.05 142.092 309.835 142.217 308.282C142.498 305.125 142.903 300.584 143.405 294.99C144.444 283.751 145.882 268.259 147.475 251.147C149.104 234.035 150.586 218.542 151.655 207.303C152.208 201.71 152.658 197.176 152.968 194.018C153.13 192.465 153.255 191.251 153.344 190.412C153.388 190.015 153.425 189.705 153.454 189.477C153.484 189.264 153.499 189.161 153.506 189.161C153.513 189.161 153.506 189.271 153.499 189.485C153.484 189.713 153.462 190.029 153.432 190.427C153.359 191.273 153.263 192.487 153.13 194.04C152.85 197.198 152.444 201.732 151.943 207.333C150.903 218.571 149.465 234.064 147.873 251.183C146.243 268.295 144.761 283.781 143.692 295.02C143.139 300.613 142.689 305.147 142.38 308.304C142.217 309.857 142.092 311.072 142.004 311.911C141.959 312.308 141.923 312.617 141.893 312.846C141.871 313.059 141.849 313.162 141.841 313.162Z" fill="#263238"/>
<g opacity="0.2">
<path d="M179.062 185.37L173.702 204.654L171.46 205.507L172.994 210.343L157.635 233.372L171.46 209.025L170.214 204.823L173.237 202.688L179.062 185.37Z" fill="black"/>
</g>
<g opacity="0.2">
<path d="M154.133 189.948L155.548 199.987L169.233 189.396L157.075 196.123L154.133 189.948Z" fill="black"/>
</g>
<g opacity="0.2">
<path d="M118.638 287.689L118.062 292.26C118.062 292.26 120.827 295.8 123.519 295.056C126.21 294.313 137.476 289.411 137.476 289.411L137.3 287.689C137.3 287.689 130.73 284.995 130.361 285.091C129.993 285.187 118.638 287.689 118.638 287.689Z" fill="black"/>
</g>
<g opacity="0.2">
<path d="M140.33 297.853L140.669 302.056C140.669 302.056 161.056 299.723 169.838 296.389C169.838 296.389 186.981 290.044 191.847 284.061C184.88 286.982 176.725 289.47 168.002 291.752L140.33 297.853Z" fill="black"/>
</g>
<path d="M156.352 268.774L130.796 235.058C130.251 234.336 129.307 234.049 128.452 234.344L89.3434 247.665C87.9573 248.136 87.4706 249.851 88.407 250.977L120.223 289.205C120.791 289.882 121.72 290.133 122.553 289.831L159.125 276.524C160.481 276.031 160.946 274.345 160.024 273.234L156.352 268.774Z" fill="#455A64"/>
<path d="M104.473 246.547C104.496 247.143 104.997 247.614 105.594 247.592C106.191 247.57 106.663 247.069 106.641 246.473C106.619 245.877 106.118 245.406 105.52 245.428C104.923 245.443 104.451 245.95 104.473 246.547Z" fill="#263238"/>
<path d="M112.37 243.875C112.392 244.471 112.894 244.942 113.491 244.92C114.088 244.898 114.56 244.398 114.538 243.801C114.516 243.205 114.015 242.734 113.417 242.756C112.82 242.771 112.348 243.271 112.37 243.875Z" fill="#263238"/>
<path d="M135.043 274.706L132.986 274.242C132.986 274.242 132.146 270.849 131.217 270.165C130.288 269.48 121.13 265.69 119.11 264.682C117.089 263.673 109.222 260.42 108.315 262.327C107.29 264.483 110.505 266.117 112.245 266.86C113.985 267.611 118.933 269.333 117.982 270.533C117.03 271.733 105.668 271.666 105.668 271.666L104.363 270.15C104.363 270.15 102.35 272.159 102.697 274.125C103.036 276.09 103.891 277.319 103.891 277.319L104.702 277.289C104.702 277.289 103.935 278.489 104.695 279.63C105.454 280.771 106.951 282.25 106.951 282.25C106.951 282.25 108.322 284.892 112.216 285.812C112.673 285.923 130.737 286.85 130.737 286.85L137.292 288.315L135.043 274.706Z" fill="#FFBE9D"/>
<path d="M182.535 210.497C182.328 210.939 176.961 260.715 176.961 260.715L134.881 273.455L138.9 298.126C138.9 298.126 195.748 287.961 201.617 277.319C206.609 268.266 207.803 229.781 208.047 218.446C208.106 215.686 207.803 212.926 207.103 210.255C206.27 207.068 204.847 203.218 202.561 201.423C198.292 198.081 182.535 210.497 182.535 210.497Z" fill="#EBEBEB"/>
<path d="M181.348 220.89C181.348 220.89 181.341 221.14 181.296 221.618C181.245 222.111 181.178 222.825 181.083 223.745C180.883 225.622 180.603 228.353 180.235 231.819C179.482 238.797 178.406 248.747 177.116 260.729L177.101 260.832L176.998 260.862C164.869 264.542 150.409 268.928 134.925 273.631L135.058 273.418C135.088 273.58 135.11 273.749 135.139 273.926C136.511 282.39 137.838 290.559 139.062 298.096L138.848 297.942C155.962 294.696 170.59 291.156 180.758 287.969C182.041 287.601 183.228 287.159 184.364 286.791C184.931 286.6 185.477 286.423 186.008 286.239C186.531 286.04 187.04 285.849 187.527 285.672C188.5 285.297 189.414 284.973 190.24 284.642C191.051 284.289 191.796 283.965 192.467 283.671C193.138 283.383 193.728 283.126 194.207 282.854C194.694 282.596 195.107 282.375 195.446 282.199C195.77 282.029 196.028 281.897 196.213 281.801C196.382 281.713 196.478 281.676 196.478 281.676C196.478 281.676 196.397 281.735 196.227 281.831C196.05 281.934 195.8 282.073 195.475 282.257C195.136 282.441 194.731 282.67 194.244 282.942C193.765 283.229 193.175 283.494 192.511 283.788C191.848 284.09 191.103 284.421 190.292 284.789C189.466 285.135 188.559 285.466 187.586 285.849C187.099 286.04 186.59 286.232 186.067 286.431C185.536 286.615 184.99 286.799 184.423 286.99C183.287 287.365 182.1 287.807 180.824 288.19C170.657 291.443 156.035 295.027 138.907 298.302L138.723 298.339L138.693 298.155C137.462 290.618 136.135 282.456 134.756 273.992C134.726 273.815 134.697 273.646 134.675 273.484L134.645 273.315L134.807 273.263C150.299 268.583 164.758 264.218 176.902 260.553L176.784 260.693C178.133 248.725 179.254 238.775 180.043 231.805C180.448 228.338 180.758 225.615 180.979 223.738C181.09 222.818 181.178 222.111 181.237 221.618C181.304 221.133 181.348 220.89 181.348 220.89Z" fill="#263238"/>
<path d="M199.877 200.341C199.877 200.422 198.69 200.319 196.81 200.569C195.866 200.687 194.767 200.929 193.573 201.305C192.386 201.702 191.118 202.239 189.864 202.953C188.618 203.682 187.519 204.521 186.583 205.345C185.669 206.192 184.902 207.031 184.334 207.789C183.184 209.298 182.683 210.372 182.609 210.335C182.587 210.321 182.705 210.056 182.941 209.57C183.051 209.327 183.206 209.033 183.413 208.716C183.612 208.392 183.825 208.01 184.12 207.634C184.666 206.847 185.425 205.978 186.347 205.095C187.284 204.234 188.404 203.373 189.672 202.63C190.955 201.901 192.253 201.364 193.47 200.974C194.694 200.613 195.822 200.385 196.78 200.304C197.26 200.238 197.695 200.245 198.078 200.23C198.462 200.208 198.786 200.223 199.059 200.252C199.582 200.282 199.877 200.311 199.877 200.341Z" fill="#263238"/>
<path d="M526.854 337.877C526.854 338.261 414.897 338.591 276.832 338.591C138.714 338.591 26.7871 338.261 26.7871 337.877C26.7871 337.492 138.714 337.163 276.832 337.163C414.897 337.163 526.854 337.492 526.854 337.877Z" fill="#263238"/>
<path d="M287.722 146.134L288.275 190.338C288.371 197.853 286.97 208.915 275.054 208.525C264.746 207.406 262.011 197.661 261.93 190.647C261.893 187.321 261.856 184.546 261.827 184.2C261.827 184.2 250.538 183.28 249.587 172.152C249.13 166.772 249.086 155.621 249.159 145.531C249.24 134.697 257.661 125.74 268.492 124.952L269.569 124.871C281.219 124.702 287.877 134.491 287.722 146.134Z" fill="#FFBE9D"/>
<path d="M261.827 184.2C261.827 184.2 268.89 184.097 276.042 178.857C276.042 178.857 273.093 187.247 261.886 187.056L261.827 184.2Z" fill="#EB996E"/>
<path d="M268.212 150.094C268.433 150.322 269.724 149.284 271.589 149.233C273.454 149.152 274.848 150.094 275.047 149.858C275.143 149.748 274.914 149.343 274.302 148.916C273.705 148.489 272.688 148.092 271.523 148.129C270.358 148.173 269.392 148.637 268.846 149.1C268.286 149.564 268.109 149.991 268.212 150.094Z" fill="#263238"/>
<path d="M270.122 153.921C270.151 154.716 270.852 155.349 271.685 155.334C272.518 155.319 273.167 154.664 273.138 153.862C273.108 153.067 272.408 152.434 271.574 152.449C270.741 152.471 270.092 153.126 270.122 153.921Z" fill="#263238"/>
<path d="M263.537 163.062C263.537 162.966 262.461 162.856 260.713 162.76C260.271 162.746 259.851 162.694 259.755 162.4C259.63 162.091 259.777 161.605 259.954 161.082C260.286 159.993 260.64 158.852 261.008 157.66C262.461 152.788 263.478 148.798 263.279 148.74C263.08 148.681 261.746 152.581 260.293 157.454C259.947 158.653 259.615 159.794 259.298 160.891C259.165 161.399 258.922 161.988 259.195 162.621C259.335 162.937 259.674 163.15 259.961 163.209C260.249 163.276 260.492 163.261 260.713 163.261C262.461 163.231 263.537 163.158 263.537 163.062Z" fill="#263238"/>
<path d="M269.008 143.08C269.185 143.492 270.682 143.183 272.474 143.271C274.266 143.323 275.733 143.757 275.947 143.359C276.035 143.168 275.762 142.785 275.15 142.417C274.546 142.049 273.602 141.725 272.526 141.681C271.449 141.637 270.49 141.887 269.864 142.204C269.237 142.528 268.935 142.881 269.008 143.08Z" fill="#263238"/>
<path d="M251.268 146.539C251.467 146.877 252.92 146.502 254.689 146.451C256.459 146.362 257.919 146.62 258.111 146.267C258.192 146.097 257.904 145.796 257.285 145.531C256.673 145.266 255.729 145.06 254.675 145.096C253.613 145.141 252.676 145.42 252.079 145.737C251.467 146.046 251.187 146.377 251.268 146.539Z" fill="#263238"/>
<path d="M287.42 154.444C287.604 154.348 294.918 151.625 295.235 159.257C295.545 166.889 287.81 165.631 287.788 165.41C287.759 165.189 287.42 154.444 287.42 154.444Z" fill="#FFBE9D"/>
<path d="M290 162.422C290.03 162.392 290.14 162.51 290.369 162.606C290.59 162.694 290.973 162.753 291.364 162.584C292.161 162.253 292.787 160.95 292.765 159.566C292.758 158.874 292.581 158.212 292.315 157.675C292.057 157.123 291.681 156.747 291.268 156.696C290.863 156.622 290.583 156.872 290.494 157.093C290.398 157.314 290.457 157.461 290.413 157.476C290.391 157.498 290.244 157.358 290.295 157.034C290.317 156.88 290.406 156.696 290.575 156.541C290.752 156.387 291.018 156.298 291.305 156.32C291.895 156.335 292.448 156.858 292.743 157.446C293.075 158.035 293.281 158.771 293.289 159.551C293.303 161.09 292.573 162.562 291.482 162.93C290.951 163.092 290.494 162.952 290.258 162.775C290.022 162.606 289.971 162.437 290 162.422Z" fill="#EB996E"/>
<path d="M265.344 168.347C265.263 168.155 266.759 167.706 267.814 166.301C268.337 165.609 268.647 164.858 268.868 164.306C269.089 163.754 269.259 163.401 269.34 163.43C269.421 163.452 269.399 163.828 269.274 164.431C269.148 165.027 268.883 165.881 268.293 166.661C267.703 167.456 266.922 167.927 266.339 168.155C265.757 168.398 265.358 168.413 265.344 168.347Z" fill="#263238"/>
<path d="M297.587 142.086C295.995 139.392 295.626 136.183 294.749 133.181C293.879 130.178 292.205 127.064 289.248 126.012L289.182 126.041C286.535 124.982 283.268 124.959 281.093 126.799C280.555 122.832 277.067 119.69 273.189 118.674C269.311 117.658 263.087 118.262 259.371 119.756C256.496 120.911 253.716 123.281 250.332 126.755C248.909 128.22 247.596 129.795 246.431 131.473L243.062 141.873L245.952 147.326C246.121 147.694 246.306 148.07 246.52 148.438V148.416L249.122 159.905C249.285 156.769 249.056 145.869 249.226 142.741C254.07 142.535 258.45 140.585 261.701 136.986C263.419 135.087 264.761 132.717 267.054 131.583C270.011 130.126 273.536 131.186 276.654 132.268L276.522 132.15C278.144 132.901 279.619 133.961 280.842 135.263C280.142 141.431 280.783 147.753 282.73 153.649C283.025 154.539 283.821 156.365 284.691 156.703C286.409 157.366 286.874 155.621 287.906 154.694C288.666 154.009 289.794 153.921 291.032 153.928C291.755 152.022 292.507 148.821 293.134 146.009C294.173 146.326 295.279 146.406 296.341 146.222C296.009 145.435 295.685 144.647 295.353 143.86C295.781 144.132 296.223 144.405 296.725 144.478C297.226 144.552 297.801 144.368 298.03 143.911C298.31 143.323 297.919 142.653 297.587 142.086Z" fill="#263238"/>
<path d="M277.583 128.08C277.561 128.11 278.048 128.374 278.704 129.103C279.353 129.824 280.076 131.083 280.415 132.798C280.592 133.652 280.702 134.601 280.702 135.624C280.71 136.647 280.621 137.744 280.548 138.907C280.474 140.062 280.393 141.284 280.466 142.557C280.503 143.19 280.577 143.838 280.717 144.486C280.857 145.118 281.027 145.81 281.506 146.355C281.889 146.797 282.524 146.995 283.077 146.885C283.637 146.789 284.131 146.487 284.492 146.09C285.208 145.251 285.392 144.191 285.569 143.256L285.333 143.286C285.716 144.125 286.107 144.957 286.69 145.619C287.265 146.289 288.054 146.723 288.857 146.797C289.255 146.833 289.661 146.767 290.008 146.598C290.361 146.429 290.612 146.134 290.789 145.832C290.959 145.516 291.04 145.177 291.025 144.846C291.003 144.515 290.878 144.206 290.664 143.978L290.546 144.081C291.408 145.06 292.315 145.582 292.942 145.877C293.259 146.024 293.51 146.112 293.687 146.164C293.856 146.215 293.952 146.237 293.952 146.23C293.952 146.222 293.871 146.186 293.702 146.119C293.532 146.053 293.289 145.95 292.979 145.796C292.367 145.486 291.49 144.942 290.664 143.978L290.546 144.081C290.922 144.478 290.944 145.177 290.62 145.737C290.457 146.016 290.221 146.274 289.912 146.414C289.602 146.561 289.233 146.62 288.872 146.583C288.135 146.51 287.397 146.097 286.859 145.464C286.314 144.831 285.93 144.022 285.554 143.183L285.392 142.822L285.318 143.205C285.141 144.14 284.949 145.155 284.293 145.906C283.969 146.267 283.512 146.539 283.025 146.62C282.538 146.716 282.022 146.554 281.69 146.171C281.27 145.7 281.101 145.045 280.96 144.427C280.828 143.794 280.747 143.168 280.71 142.542C280.636 141.291 280.71 140.077 280.776 138.921C280.85 137.766 280.924 136.662 280.909 135.624C280.901 134.586 280.776 133.622 280.584 132.761C280.216 131.024 279.449 129.751 278.771 129.037C278.092 128.316 277.583 128.08 277.583 128.08Z" fill="#455A64"/>
<path d="M243.084 138.914C243.084 138.914 243.113 138.943 243.172 138.988C243.246 139.039 243.342 139.105 243.452 139.194C243.578 139.282 243.733 139.392 243.924 139.495C244.116 139.606 244.337 139.738 244.603 139.849C245.635 140.342 247.301 140.828 249.373 140.702C251.43 140.585 253.9 139.856 256.105 138.222C258.332 136.625 260.286 134.27 261.886 131.569C262.697 130.222 263.36 128.838 264.09 127.565C264.813 126.292 265.617 125.107 266.583 124.179C267.541 123.245 268.654 122.553 269.797 122.229C270.365 122.06 270.94 122.023 271.493 122.037C272.046 122.067 272.562 122.177 273.042 122.332C274 122.656 274.782 123.186 275.364 123.73C275.954 124.282 276.352 124.864 276.625 125.357C277.134 126.38 277.163 127.035 277.2 127.028C277.208 127.028 277.2 126.991 277.193 126.91C277.178 126.814 277.163 126.704 277.141 126.571C277.09 126.269 276.957 125.843 276.721 125.313C276.455 124.798 276.065 124.194 275.475 123.62C274.885 123.053 274.096 122.494 273.108 122.155C272.614 121.986 272.076 121.868 271.508 121.831C270.94 121.809 270.336 121.846 269.746 122.015C268.559 122.339 267.408 123.046 266.42 123.995C265.425 124.945 264.607 126.144 263.877 127.432C263.139 128.72 262.476 130.097 261.672 131.429C260.087 134.108 258.155 136.434 255.972 138.023C253.812 139.65 251.401 140.379 249.373 140.511C247.331 140.651 245.687 140.202 244.654 139.746C243.6 139.289 243.106 138.877 243.084 138.914Z" fill="#455A64"/>
<path d="M251.187 150.793C251.408 151.021 252.699 149.983 254.564 149.932C256.43 149.851 257.823 150.793 258.022 150.557C258.118 150.447 257.889 150.042 257.277 149.615C256.68 149.189 255.663 148.791 254.498 148.828C253.333 148.872 252.367 149.336 251.821 149.799C251.261 150.27 251.076 150.69 251.187 150.793Z" fill="#263238"/>
<path d="M253.753 153.921C253.782 154.716 254.483 155.349 255.316 155.334C256.149 155.319 256.798 154.664 256.769 153.862C256.739 153.067 256.039 152.434 255.205 152.449C254.372 152.471 253.723 153.126 253.753 153.921Z" fill="#263238"/>
<path d="M247.368 130.2C246.431 131.466 244.986 132.621 243.423 132.474C242.958 132.43 241.757 132.01 241.757 132.01C241.218 132.349 241.366 134.211 241.749 134.719C242.133 135.227 242.936 135.911 242.936 135.911C241.115 136.919 239.441 136.456 237.48 135.764C237.863 139.083 240.171 142.108 243.268 143.367C244.256 143.772 245.458 143.978 246.35 143.389C247.132 142.866 247.449 141.887 247.67 140.975C248.503 137.626 248.923 134.174 248.909 130.722L247.368 130.2Z" fill="#263238"/>
<path d="M256.57 192.774L261.768 190.037C261.768 190.037 267.224 198.118 275.335 197.323C283.445 196.528 288.599 189.359 288.599 189.359L293.775 191.972L276.102 220.949L256.57 192.774Z" fill="#E5E5E5"/>
<path d="M314.723 277.076L308.736 236.213L313.131 197.846L292.714 190.721L276.006 217.946L256.887 191.575L245.569 196.528C235.703 200.848 226.781 210.181 224.739 220.742C224.709 220.882 224.687 221.022 224.658 221.162C222.04 235.308 224.938 255.474 224.938 255.474L244.3 246.922L242.737 240.107L246.446 255.673C246.446 255.673 230.63 313.214 232.872 332.077C232.872 332.077 262.734 338.723 290.229 334.204C317.724 329.685 325.186 328.434 325.186 328.434L314.723 277.076Z" fill="#CBCBCB"/>
<path d="M313.13 197.846C313.13 197.846 325.009 208.12 326.321 222.465C327.634 236.809 330.06 249.579 330.06 249.579L306.118 252.133C306.118 252.133 305.558 242.307 306.118 241.718C306.679 241.13 310.609 211.66 310.609 211.66L313.13 197.846Z" fill="#CBCBCB"/>
<g opacity="0.2">
<path d="M241.44 275.839L240.584 279.799C245.421 281.521 250.251 283.244 255.088 284.966C260.256 286.806 265.454 288.653 270.867 289.581C280.791 291.281 290.951 289.809 300.913 288.337C306.48 287.512 312.725 286.276 315.785 281.558C290.679 283.023 266 281.183 241.44 275.839Z" fill="black"/>
</g>
<path d="M226.722 254.665C226.907 254.863 233.366 273.536 237.104 276.877C240.842 280.219 262.542 279.041 271.707 275.7C280.872 272.358 300.338 268.303 300.338 268.303L297.359 253.23C297.359 253.23 290.244 253.936 280.872 255.46C277.48 256.012 246.453 255.658 246.453 255.658L244.308 246.907L226.722 254.665Z" fill="#E5E5E5"/>
<path d="M328.784 249.711C328.725 249.719 328.194 274.331 325.569 277.473C322.952 280.616 313.794 284.348 306.871 285.135C299.947 285.923 257.86 284.009 251.688 278.879L276.006 261.958L300.788 268.067L307.733 265.086L308.36 251.897L328.784 249.711Z" fill="#E5E5E5"/>
<path d="M306.561 288.719C306.568 288.727 306.458 288.874 306.229 289.132C305.971 289.419 305.639 289.801 305.226 290.272C304.791 290.765 304.253 291.369 303.582 292.031C302.918 292.694 302.196 293.481 301.318 294.269C300.456 295.078 299.512 295.962 298.443 296.852C297.403 297.772 296.231 298.685 294.992 299.642C292.493 301.518 289.654 303.469 286.528 305.272C283.394 307.061 280.282 308.54 277.399 309.747C275.939 310.306 274.568 310.88 273.241 311.3C272.585 311.521 271.95 311.749 271.331 311.94C270.712 312.124 270.115 312.293 269.547 312.463C268.419 312.816 267.372 313.044 266.457 313.272C265.55 313.508 264.754 313.67 264.105 313.78C263.486 313.891 262.992 313.986 262.608 314.053C262.269 314.111 262.085 314.133 262.085 314.126C262.085 314.111 262.262 314.06 262.594 313.979C262.97 313.891 263.464 313.78 264.076 313.633C264.717 313.493 265.506 313.309 266.406 313.059C267.313 312.816 268.345 312.566 269.466 312.198C270.033 312.021 270.623 311.845 271.235 311.653C271.847 311.454 272.474 311.219 273.13 310.998C274.443 310.564 275.807 309.982 277.259 309.416C280.128 308.194 283.21 306.715 286.336 304.934C289.455 303.145 292.279 301.209 294.778 299.355C296.01 298.405 297.189 297.507 298.236 296.602C299.313 295.726 300.257 294.858 301.134 294.063C302.019 293.29 302.756 292.517 303.435 291.87C304.113 291.222 304.666 290.64 305.123 290.162C305.558 289.713 305.912 289.345 306.178 289.073C306.413 288.837 306.554 288.712 306.561 288.719Z" fill="#263238"/>
<path d="M298.598 192.774C298.605 192.774 298.576 192.848 298.509 192.981C298.428 193.128 298.332 193.319 298.207 193.555C297.919 194.077 297.521 194.821 297.005 195.755C295.936 197.684 294.41 200.436 292.529 203.829C288.703 210.652 283.431 220.065 277.576 230.502L277.429 230.759L277.252 230.517C277.068 230.266 276.876 230.001 276.677 229.729C269.48 219.889 262.97 210.983 258.243 204.514C255.913 201.29 254.019 198.677 252.691 196.845C252.057 195.954 251.556 195.247 251.195 194.747C251.04 194.519 250.914 194.335 250.811 194.195C250.73 194.07 250.686 194.004 250.693 193.996C250.701 193.989 250.752 194.048 250.841 194.166C250.944 194.298 251.084 194.475 251.254 194.695C251.622 195.189 252.146 195.873 252.802 196.749C254.151 198.567 256.076 201.15 258.45 204.344C263.206 210.799 269.746 219.683 276.979 229.494C277.178 229.766 277.37 230.031 277.554 230.281L277.23 230.303C283.121 219.889 288.43 210.505 292.279 203.689C294.203 200.318 295.766 197.588 296.858 195.674C297.396 194.754 297.816 194.026 298.118 193.51C298.259 193.282 298.369 193.098 298.458 192.951C298.546 192.833 298.59 192.767 298.598 192.774Z" fill="#263238"/>
<path d="M284.323 253.943C284.308 253.943 284.293 253.789 284.286 253.487C284.279 253.149 284.264 252.714 284.249 252.177C284.234 250.992 284.212 249.358 284.19 247.356C284.175 245.31 284.168 242.889 284.146 240.21C284.146 238.863 284.138 237.45 284.131 235.992C284.131 235.264 284.131 234.513 284.131 233.762C284.131 233.387 284.131 233.004 284.131 232.622V232.467C284.138 232.386 284.168 232.298 284.22 232.231C284.308 232.084 284.551 232.047 284.618 232.055L285.208 232.025C291.438 231.915 297.064 232.04 301.141 232.099C303.14 232.143 304.776 232.187 305.971 232.217C306.509 232.239 306.944 232.253 307.283 232.268C307.586 232.283 307.741 232.298 307.741 232.312C307.741 232.327 307.586 232.334 307.283 232.342C306.944 232.349 306.509 232.357 305.971 232.364C304.784 232.364 303.147 232.371 301.141 232.371C297.071 232.386 291.431 232.298 285.222 232.408L284.655 232.438C284.522 232.445 284.559 232.445 284.537 232.46C284.529 232.467 284.529 232.482 284.522 232.489V232.622C284.522 233.004 284.522 233.387 284.522 233.762C284.522 234.52 284.522 235.264 284.522 235.992C284.515 237.457 284.515 238.863 284.507 240.21C284.492 242.889 284.478 245.31 284.463 247.356C284.441 249.351 284.419 250.985 284.404 252.177C284.389 252.714 284.374 253.149 284.367 253.487C284.352 253.782 284.338 253.943 284.323 253.943Z" fill="#263238"/>
<path d="M308.367 251.89C308.375 251.89 308.375 251.971 308.375 252.118C308.375 252.295 308.367 252.516 308.367 252.795C308.345 253.421 308.316 254.282 308.286 255.379C308.19 257.645 308.065 260.869 307.903 264.807L307.895 264.902L307.807 264.939C304.998 266.036 301.753 267.28 298.17 268.546C294.586 269.826 290.634 270.989 286.483 272.108C277.008 274.632 268.264 276.134 261.945 277.216C258.804 277.738 256.253 278.165 254.453 278.46C253.591 278.599 252.912 278.702 252.411 278.783C252.197 278.813 252.02 278.835 251.88 278.857C251.762 278.872 251.696 278.879 251.696 278.872C251.696 278.864 251.755 278.85 251.873 278.82C252.013 278.791 252.182 278.754 252.396 278.71C252.89 278.614 253.569 278.482 254.424 278.312C256.223 277.981 258.767 277.518 261.893 276.943C268.197 275.795 276.927 274.25 286.38 271.733C290.524 270.614 294.469 269.458 298.045 268.2C301.628 266.949 304.88 265.734 307.696 264.66L307.6 264.792C307.814 260.854 307.991 257.638 308.117 255.371C308.183 254.282 308.242 253.414 308.279 252.795C308.301 252.523 308.316 252.302 308.33 252.126C308.345 251.964 308.36 251.89 308.367 251.89Z" fill="#263238"/>
<path d="M297.639 254.451C297.639 254.451 302.166 253.87 304.688 253.943C306.34 253.988 308.242 254.444 308.242 254.444L307.733 265.079L300.264 268.06L297.639 254.451Z" fill="#FFBE9D"/>
<path d="M236.758 215.487C236.787 215.48 236.905 215.929 237.111 216.746C237.325 217.622 237.605 218.792 237.945 220.205C238.645 223.186 239.589 227.197 240.629 231.635C241.683 236.095 242.671 240.129 243.401 243.043C243.755 244.456 244.05 245.619 244.271 246.495C244.477 247.312 244.573 247.768 244.551 247.768C244.529 247.776 244.374 247.334 244.131 246.532C243.88 245.73 243.548 244.559 243.143 243.11C242.346 240.21 241.314 236.184 240.26 231.724C239.205 227.263 238.299 223.208 237.679 220.264C237.392 218.836 237.148 217.659 236.971 216.775C236.809 215.951 236.735 215.487 236.758 215.487Z" fill="#263238"/>
<path d="M307.844 237.722C307.844 237.751 307.512 237.781 306.922 237.825C306.325 237.862 305.462 237.906 304.393 237.943C302.262 238.024 299.313 238.083 296.054 238.075C292.795 238.068 289.846 238.002 287.715 237.921C286.645 237.877 285.783 237.832 285.186 237.796C284.588 237.759 284.264 237.722 284.264 237.693C284.264 237.663 284.596 237.648 285.193 237.648C285.871 237.648 286.712 237.648 287.722 237.656C289.934 237.67 292.846 237.685 296.061 237.7C299.276 237.693 302.181 237.685 304.393 237.678C305.396 237.678 306.244 237.678 306.922 237.678C307.512 237.678 307.844 237.693 307.844 237.722Z" fill="#263238"/>
<path d="M264.636 255.761C264.614 255.776 264.452 255.555 264.179 255.143C263.862 254.657 263.479 254.076 263.029 253.399C262.063 251.927 260.699 249.91 259.099 247.746C257.499 245.582 255.972 243.684 254.852 242.329C254.336 241.704 253.886 241.166 253.517 240.718C253.207 240.335 253.038 240.114 253.06 240.099C253.082 240.085 253.281 240.269 253.628 240.622C253.974 240.975 254.461 241.498 255.051 242.153C256.231 243.47 257.794 245.347 259.401 247.518C261.001 249.689 262.336 251.735 263.25 253.252C263.707 254.01 264.061 254.628 264.297 255.062C264.54 255.504 264.658 255.747 264.636 255.761Z" fill="#263238"/>
<path d="M268.868 255.96C268.787 256.019 267.807 254.746 267.047 252.92C266.28 251.102 266.059 249.505 266.155 249.491C266.266 249.469 266.649 250.992 267.401 252.773C268.138 254.554 268.964 255.901 268.868 255.96Z" fill="#263238"/>
<path d="M280.732 224.496C280.725 224.503 280.629 224.393 280.459 224.187C280.268 223.937 280.032 223.628 279.737 223.252C279.088 222.384 278.21 221.199 277.134 219.756C274.937 216.746 271.958 212.661 268.662 208.15C265.403 203.608 262.454 199.502 260.278 196.477C259.246 195.005 258.398 193.798 257.771 192.914C257.499 192.517 257.285 192.193 257.108 191.935C256.96 191.707 256.887 191.582 256.894 191.575C256.901 191.567 256.997 191.678 257.167 191.884C257.359 192.134 257.595 192.443 257.889 192.819C258.538 193.687 259.416 194.872 260.492 196.307C262.689 199.318 265.676 203.402 268.972 207.921C272.231 212.462 275.18 216.569 277.355 219.594C278.387 221.066 279.235 222.273 279.862 223.157C280.135 223.554 280.349 223.878 280.526 224.135C280.666 224.371 280.739 224.489 280.732 224.496Z" fill="#263238"/>
<path d="M290.87 190.721C290.885 190.728 290.841 190.861 290.752 191.111C290.649 191.354 290.546 191.737 290.31 192.186C289.897 193.106 289.13 194.386 287.914 195.733C286.704 197.087 284.957 198.434 282.789 199.487C281.698 199.995 280.511 200.436 279.243 200.76C277.967 201.069 276.625 201.268 275.232 201.327C272.444 201.422 269.797 200.79 267.607 199.796C265.403 198.81 263.641 197.5 262.358 196.219C261.067 194.938 260.212 193.731 259.718 192.848C259.445 192.421 259.305 192.053 259.18 191.818C259.062 191.575 259.01 191.45 259.025 191.442C259.121 191.376 259.954 193.533 262.557 196.02C263.847 197.257 265.595 198.523 267.762 199.472C269.915 200.429 272.503 201.032 275.224 200.944C276.588 200.885 277.908 200.694 279.154 200.392C280.4 200.076 281.565 199.649 282.642 199.163C284.773 198.147 286.505 196.852 287.715 195.542C288.939 194.239 289.727 193.003 290.177 192.112C290.634 191.229 290.833 190.706 290.87 190.721Z" fill="#263238"/>
<g opacity="0.2">
<path d="M251.696 278.872C271.375 280.513 292.094 280.947 308.382 264.667C291.246 271.681 269.996 276.149 251.696 278.872Z" fill="black"/>
</g>
<g opacity="0.2">
<path d="M308.323 254.414C305.639 251.971 305.256 247.93 305.337 244.309C305.477 238.237 306.944 231.488 308.647 225.659C308.294 236.014 307.527 245.126 308.205 254.459" fill="black"/>
</g>
<path d="M246.453 255.666C246.483 255.717 246.1 255.967 245.51 256.402C244.927 256.843 244.16 257.491 243.548 258.411C242.936 259.324 242.546 260.266 242.221 260.928C241.911 261.598 241.69 262.003 241.646 261.981C241.594 261.958 241.727 261.517 241.97 260.825C242.229 260.133 242.59 259.162 243.231 258.198C243.873 257.226 244.721 256.571 245.355 256.181C246.004 255.783 246.431 255.622 246.453 255.666Z" fill="#263238"/>
<path d="M322.141 325.541L323.962 337.163H234.435L235.489 328.427L322.141 325.541Z" fill="#CBCBCB"/>
<path d="M324.729 328.287C324.729 328.294 324.655 328.316 324.5 328.368C324.331 328.419 324.102 328.478 323.822 328.559C323.203 328.728 322.325 328.964 321.212 329.266C320.076 329.575 318.69 329.935 317.061 330.303C315.431 330.671 313.588 331.142 311.523 331.533C310.491 331.739 309.414 331.959 308.286 332.188C307.158 332.408 305.978 332.592 304.762 332.806C302.329 333.255 299.711 333.601 296.961 333.998C291.446 334.705 285.363 335.279 278.955 335.573C272.54 335.838 266.428 335.779 260.876 335.558C258.103 335.404 255.464 335.286 253.001 335.043C251.77 334.933 250.583 334.852 249.44 334.727C248.297 334.602 247.206 334.477 246.159 334.359C244.065 334.145 242.192 333.844 240.54 333.615C238.888 333.395 237.465 333.152 236.315 332.938C235.18 332.732 234.287 332.57 233.653 332.46C233.366 332.401 233.137 332.357 232.96 332.327C232.805 332.298 232.724 332.276 232.724 332.269C232.724 332.261 232.805 332.269 232.968 332.291C233.145 332.313 233.373 332.35 233.668 332.386C234.302 332.482 235.202 332.622 236.345 332.791C237.502 332.982 238.925 333.196 240.577 333.402C242.229 333.608 244.109 333.895 246.203 334.086C247.25 334.197 248.341 334.315 249.477 334.432C250.619 334.55 251.807 334.624 253.038 334.727C255.493 334.948 258.133 335.058 260.905 335.205C266.45 335.411 272.555 335.448 278.955 335.19C285.355 334.896 291.431 334.329 296.931 333.645C299.682 333.262 302.292 332.924 304.725 332.489C305.942 332.283 307.121 332.107 308.242 331.893C309.363 331.672 310.447 331.466 311.479 331.268C313.543 330.892 315.394 330.451 317.024 330.097C318.653 329.751 320.054 329.413 321.19 329.126C322.31 328.854 323.195 328.64 323.815 328.486C324.102 328.419 324.323 328.368 324.5 328.331C324.648 328.294 324.729 328.287 324.729 328.287Z" fill="#263238"/>
<path d="M310.808 209.393C310.823 209.393 310.808 209.555 310.771 209.85C310.727 210.188 310.66 210.615 310.587 211.145C310.417 212.271 310.181 213.898 309.916 215.907C309.378 219.933 308.751 225.504 308.375 231.687C308.006 237.869 307.954 243.485 308.006 247.54C308.036 249.572 308.065 251.213 308.102 252.346C308.109 252.884 308.124 253.318 308.124 253.656C308.124 253.958 308.117 254.113 308.109 254.113C308.095 254.113 308.072 253.958 308.05 253.656C308.028 253.318 307.991 252.884 307.954 252.354C307.873 251.22 307.8 249.579 307.733 247.548C307.608 243.485 307.615 237.862 307.984 231.665C308.36 225.468 309.024 219.889 309.636 215.87C309.938 213.861 310.211 212.242 310.432 211.123C310.535 210.6 310.616 210.174 310.683 209.842C310.756 209.548 310.793 209.393 310.808 209.393Z" fill="#263238"/>
</svg>
