<svg width="17" height="12" viewBox="0 0 17 12" fill="none" xmlns="http://www.w3.org/2000/svg">
<path d="M16.7435 3.28611C16.6425 2.31108 16.4252 1.23323 15.6254 0.666787C15.0059 0.227526 14.1917 0.211287 13.4315 0.212189C11.8247 0.212189 10.217 0.214898 8.61012 0.2158C7.06459 0.217604 5.51906 0.218505 3.97354 0.220309C3.32791 0.220309 2.70032 0.170699 2.10069 0.450311C1.58581 0.690236 1.18275 1.14664 0.940189 1.65445C0.603852 2.36069 0.533522 3.16074 0.492946 3.94185C0.418104 5.36426 0.426219 6.79028 0.515488 8.21179C0.581313 9.24906 0.748126 10.3955 1.54974 11.0566C2.26029 11.642 3.26299 11.6709 4.18453 11.6718C7.10967 11.6745 10.0357 11.6772 12.9618 11.679C13.3369 11.6799 13.7282 11.6727 14.1105 11.6312C14.8626 11.55 15.5794 11.3344 16.0627 10.777C16.5505 10.2151 16.6759 9.43306 16.7498 8.69254C16.9302 6.89581 16.9284 5.08194 16.7435 3.28611ZM6.91852 8.46434L6.91852 3.42682L11.2792 5.94513L6.91852 8.46434Z" fill="#6B6B6B"/>
</svg>
